<svg width="242" height="32" viewBox="0 0 242 32" fill="none" xmlns="http://www.w3.org/2000/svg">
<g clip-path="url(#clip0_412_6171)">
<path d="M19.2812 19.5439C19.4303 19.5336 19.6079 19.5297 19.7002 19.6684C19.6006 19.608 19.4871 19.5724 19.3702 19.5688L19.3805 19.6435C19.3417 19.6186 19.3098 19.5794 19.2812 19.5439Z" fill="#0093D8"/>
<path d="M21.4945 16.6496C22.0339 17.4203 22.6018 18.1731 23.1522 18.9368C23.3118 19.1499 23.4573 19.3666 23.6242 19.5724C23.7696 19.5724 23.9153 19.5724 24.0644 19.5688C24.0076 19.4374 23.9117 19.3272 23.8267 19.2137C23.3225 18.5213 22.8186 17.8322 22.3107 17.1398C22.0979 16.8982 21.9343 16.6177 21.7428 16.3622C21.4234 15.9217 21.1002 15.4849 20.7808 15.0445C20.7489 15.0056 20.7204 14.9628 20.6743 14.9346C20.5252 14.9203 20.3798 14.9346 20.2305 14.9309C20.5465 15.389 20.8873 15.8294 21.2101 16.2841C21.3063 16.4083 21.3949 16.5361 21.4945 16.6496Z" fill="white"/>
<path d="M29.3381 7.91724C28.323 6.23407 26.9882 4.74274 25.4228 3.5565C23.1616 1.83083 20.4175 0.740506 17.5881 0.46366C17.4393 0.435137 17.283 0.449399 17.1339 0.413884C16.8959 0.399622 16.6546 0.413884 16.4169 0.38536C16.0053 0.346211 15.5897 0.388996 15.1778 0.406613C14.9401 0.396267 14.7024 0.452754 14.4645 0.449399C14.2656 0.488269 14.0632 0.498895 13.8646 0.520148C13.1582 0.626692 12.4552 0.761759 11.7701 0.960584C11.6884 0.978481 11.6034 1.00337 11.5251 1.03161C9.32072 1.69213 7.26898 2.84985 5.56149 4.39487C3.36071 6.37641 1.74521 8.99358 0.971445 11.8484C0.215573 14.6149 0.243816 17.5873 1.04611 20.3395C1.75612 22.7757 3.07659 25.0232 4.84784 26.8417C6.06568 28.0881 7.48878 29.1359 9.05114 29.91C10.5811 30.677 12.2385 31.1849 13.9354 31.4049C14.3968 31.4581 14.8551 31.5185 15.3199 31.5185C15.6392 31.5579 15.9591 31.5436 16.2785 31.5436C16.4807 31.547 16.6798 31.5042 16.8817 31.5151C19.8744 31.3588 22.8174 30.297 25.2276 28.5106C27.439 26.8842 29.2069 24.6684 30.2967 22.1505C31.5425 19.2917 31.8834 16.0531 31.2905 12.9922C30.9463 11.2022 30.2791 9.47624 29.3381 7.91724ZM10.3216 16.2981C10.5844 15.851 10.8506 15.4069 11.1099 14.9595C11.1952 14.8068 11.2802 14.6577 11.3725 14.5084C11.5822 14.1815 11.7631 13.8373 11.9723 13.5106C12.04 13.3971 12.1678 13.3294 12.3025 13.3331C12.9524 13.3294 13.6018 13.3331 14.255 13.3331C14.4359 13.3294 14.6065 13.4181 14.72 13.5601C14.9756 13.8622 15.1851 14.203 15.4373 14.5084C15.5436 14.6577 15.6501 14.8068 15.753 14.9558C16.1222 15.4673 16.4986 15.9715 16.8677 16.483C16.9175 16.5537 16.9882 16.6108 17.0486 16.6745C17.4038 17.2679 17.8546 17.7967 18.2379 18.3722C17.9502 18.1874 16.5235 17.3353 16.2961 17.1753C16.2749 16.9586 16.2995 16.7385 16.2818 16.5185C16.0936 16.5185 15.9094 16.5185 15.7212 16.5185C15.7175 16.7137 15.7248 16.9125 15.7212 17.1116C15.7282 17.1611 15.6926 17.1966 15.6535 17.2179C14.9082 17.6726 14.1627 18.127 13.4172 18.585C13.0198 18.8266 12.6185 19.0646 12.2282 19.3132C11.6638 18.578 10.2617 16.6924 10.2013 16.5327C10.2223 16.4472 10.2793 16.3764 10.3216 16.2981ZM20.2259 19.8884C20.0022 19.7358 19.7715 19.5867 19.5444 19.441C19.4236 19.3666 19.3562 19.2313 19.2709 19.1177C19.6935 19.3557 20.0945 19.6328 20.5167 19.8742L20.5274 19.9312C20.4247 19.9276 20.3146 19.9455 20.2259 19.8884ZM20.7687 20.2542C20.7687 20.5599 20.7687 20.8616 20.7687 21.1667C20.6376 21.0389 20.5486 20.8759 20.4351 20.7338C20.3252 20.5738 20.1938 20.4281 20.1051 20.2542C20.3252 20.2542 20.5453 20.2542 20.7687 20.2542ZM19.5514 19.9027L19.5833 19.9312C19.4874 19.9346 19.3951 19.9346 19.2992 19.9133C19.2245 19.8566 19.1504 19.7995 19.0758 19.743C18.703 19.4589 18.3339 19.1709 17.9645 18.8834C17.4038 18.4466 16.8355 18.0134 16.2818 17.5696C16.6901 17.8322 17.0738 18.127 17.4748 18.3968C18.1563 18.9119 18.8699 19.3842 19.5514 19.9027ZM12.8526 19.5901C12.906 19.5512 12.9594 19.512 13.0162 19.4765C13.9178 18.8445 14.809 18.191 15.7175 17.566C15.3056 17.9175 14.8655 18.2335 14.4429 18.5708C13.861 19.0255 13.2788 19.4765 12.6929 19.9276C12.6006 19.924 12.505 19.9203 12.4124 19.917C12.5545 19.8101 12.7038 19.7036 12.8526 19.5901ZM12.345 19.6328C12.3629 19.6219 14.0883 18.4927 14.3968 18.2833C14.823 18.0062 15.2419 17.722 15.6787 17.4595C14.8017 18.0915 13.9144 18.7095 13.0338 19.3345C12.9628 19.3842 12.892 19.4337 12.8246 19.4835C12.7108 19.5615 12.6006 19.6435 12.4907 19.7215C12.4801 19.6966 12.4552 19.6471 12.441 19.6219C12.4164 19.6256 12.3702 19.6328 12.345 19.6328ZM14.3084 18.7984C14.7771 18.436 15.231 18.0596 15.7105 17.7081C15.4122 17.9922 15.0928 18.2514 14.7874 18.5246C14.269 18.9757 13.7508 19.4304 13.2326 19.8814C13.1406 19.9701 13.0019 19.9133 12.892 19.924C13.3534 19.5406 13.8397 19.1781 14.3084 18.7984ZM13.7332 19.6043C14.1591 19.2246 14.585 18.8445 15.0075 18.4645C15.2561 18.2514 15.4905 18.0204 15.7494 17.8216C15.0609 18.5285 14.3649 19.2279 13.6692 19.9276C13.5769 19.9276 13.4846 19.9276 13.3959 19.9276C13.4882 19.8034 13.6197 19.7109 13.7332 19.6043ZM14.0774 19.7002C14.649 19.1144 15.203 18.507 15.7852 17.9318C15.2525 18.6066 14.7024 19.2671 14.1591 19.9312C14.0704 19.9312 13.9782 19.9276 13.8892 19.924C13.9354 19.8353 14.01 19.7713 14.0774 19.7002ZM14.4396 19.8138C14.8973 19.2209 15.3554 18.6278 15.8132 18.0347C15.76 18.1731 15.6678 18.2906 15.597 18.4184C15.281 18.9226 14.972 19.4267 14.6527 19.9276C14.5637 19.9276 14.4751 19.9276 14.3828 19.924C14.3968 19.8884 14.4183 19.8496 14.4396 19.8138ZM15.4407 18.8691C15.5755 18.6348 15.6996 18.3968 15.8453 18.1698C15.8313 18.2444 15.8028 18.3152 15.7743 18.3865C15.5648 18.901 15.3554 19.4161 15.1459 19.9312C15.05 19.9312 14.9508 19.9312 14.8551 19.9312C15.0324 19.5655 15.2491 19.2246 15.4407 18.8691ZM15.0822 20.144C15.2737 20.144 15.4692 20.144 15.6608 20.144C15.6608 20.2506 15.6608 20.3571 15.6535 20.46C15.4653 20.4567 15.2774 20.4567 15.0892 20.46C15.0822 20.3538 15.0785 20.2472 15.0822 20.144ZM15.3518 19.9276C15.3769 19.7925 15.4301 19.6647 15.4726 19.5336C15.618 19.0965 15.7709 18.6633 15.9164 18.2302C15.9695 18.2302 16.0229 18.2302 16.0794 18.2302C16.2715 18.7984 16.4667 19.363 16.6546 19.9312C16.2181 19.9312 15.7852 19.9312 15.3518 19.9276ZM16.3316 20.144C16.5235 20.1407 16.715 20.144 16.9102 20.144C16.9138 20.2506 16.9102 20.3571 16.9032 20.4639C16.7117 20.4497 16.5198 20.4816 16.3316 20.4424C16.3316 20.3431 16.3316 20.2436 16.3316 20.144ZM16.8428 19.9276C16.6121 19.3381 16.3565 18.7629 16.1401 18.1698C16.1896 18.2195 16.2181 18.2797 16.2533 18.3403C16.4773 18.731 16.6974 19.125 16.9175 19.5193C16.9919 19.6541 17.0771 19.7855 17.1339 19.9276C17.038 19.9312 16.9387 19.9312 16.8428 19.9276ZM16.2715 18.2159C16.2357 18.1555 16.2002 18.0951 16.1719 18.0311C16.5766 18.5389 16.967 19.0573 17.3646 19.5688C17.4499 19.6893 17.5562 19.7962 17.6238 19.9276C17.5279 19.9276 17.432 19.9276 17.3327 19.924C16.9815 19.3591 16.6264 18.7875 16.2715 18.2159ZM16.2075 17.9354C16.6297 18.3261 17.0025 18.7665 17.4144 19.1709C17.6487 19.4234 17.8937 19.6647 18.1208 19.9276C18.0249 19.9312 17.9326 19.9312 17.8367 19.9312C17.2866 19.2671 16.7472 18.6029 16.2075 17.9354ZM16.7681 18.358C16.6051 18.1874 16.4345 18.0243 16.2785 17.8465C17.031 18.4891 17.7586 19.1605 18.5005 19.8138C18.5363 19.8423 18.5716 19.8742 18.5858 19.917C18.5005 19.9312 18.4119 19.924 18.3266 19.9276C17.8014 19.4128 17.2866 18.8834 16.7681 18.358ZM16.2749 17.7044C16.8498 18.12 19.0366 19.8814 19.1076 19.917C19.0117 19.9312 18.9122 19.9276 18.8165 19.9276C17.9681 19.1851 17.1127 18.4539 16.2749 17.7044ZM11.8982 19.8034C11.8554 19.8314 11.8162 19.8599 11.7737 19.8848C11.6708 19.9597 11.536 19.9203 11.4152 19.9276C11.5075 19.8635 11.6034 19.8034 11.6991 19.743C11.7379 19.7179 11.7771 19.6966 11.8162 19.6717C11.8448 19.7145 11.8697 19.757 11.8982 19.8034ZM3.98179 19.0892C3.97816 19.0361 3.94963 18.9723 3.99242 18.9262C4.22676 18.5887 4.45746 18.2514 4.6918 17.9142C4.82659 17.726 5.02542 17.5481 5.27038 17.5554C5.59001 17.5587 5.913 17.5481 6.23235 17.5587C6.5201 17.5982 6.6974 17.8608 6.85372 18.0808C7.16272 18.5034 7.4748 18.9295 7.78017 19.3521C7.83666 19.4267 7.88308 19.512 7.9611 19.5688C8.11043 19.5831 8.2592 19.5724 8.40853 19.5724C7.95774 18.9368 7.4927 18.3152 7.03464 17.6832C6.88224 17.4701 6.70802 17.2321 6.43845 17.1753C6.12944 17.1611 5.81708 17.1717 5.50808 17.1717C5.38028 17.1681 5.30953 17.2892 5.23151 17.3705C5.18174 17.3672 5.12832 17.3672 5.07855 17.3635C5.12832 17.2713 5.18873 17.1823 5.24549 17.0973C5.3484 16.9337 5.46222 16.7774 5.5724 16.6214C5.87385 16.1952 6.16496 15.7584 6.46669 15.3286C6.5696 15.1762 6.74717 15.066 6.93537 15.073C7.37189 15.0764 7.81205 15.0696 8.24885 15.0764C8.44041 15.0803 8.5682 15.2363 8.67139 15.3786C8.94796 15.7514 10.3079 17.6119 10.602 18.0204C10.9891 18.5428 11.3655 19.0752 11.7595 19.5937C11.7061 19.6219 11.6566 19.6541 11.6034 19.686C11.4756 19.7783 11.2768 19.9597 11.0531 19.9346C10.2508 19.9312 9.44851 19.9346 8.64986 19.9346C8.57883 19.8101 8.49018 19.6932 8.40853 19.5794C8.2592 19.5794 8.11043 19.5831 7.96473 19.5937C8.04639 19.7036 8.12441 19.8177 8.19544 19.9346C6.87469 19.9382 5.55422 19.9312 4.23375 19.9382C4.13448 19.6575 4.0847 19.3666 3.98179 19.0892ZM5.07184 21.8557C4.8196 21.3552 4.55338 20.8543 4.38643 20.318C4.6493 20.3252 4.90825 20.3714 5.16412 20.4245C5.51199 20.5028 5.85987 20.5881 6.18258 20.7372C6.18258 21.0604 6.18258 21.3834 6.18258 21.7067C6.37441 21.7137 6.56624 21.7103 6.75444 21.7103C6.76843 21.387 6.73291 21.0604 6.77206 20.7372C6.91747 20.6379 7.08442 20.5775 7.25109 20.5204C7.65936 20.3893 8.0889 20.3219 8.5187 20.318C8.71026 20.6412 8.95523 20.929 9.17167 21.238C9.31373 21.4474 9.48403 21.639 9.60819 21.8594C8.09617 21.8594 6.58386 21.8594 5.07184 21.8557ZM10.0805 21.8524C9.73599 21.38 9.39175 20.9077 9.04387 20.4388C9.01898 20.3999 8.99773 20.3608 8.97648 20.318C9.55142 20.3361 10.13 20.4567 10.6378 20.7265C10.6518 21.0531 10.6378 21.38 10.6448 21.7067C10.8364 21.7067 11.0282 21.7067 11.2161 21.7067C11.22 21.2237 11.2161 20.7372 11.22 20.2542C11.5643 20.2542 11.9085 20.2542 12.2564 20.2542C12.6079 20.762 12.9804 21.2483 13.3392 21.7492C13.3604 21.785 13.3817 21.8202 13.3996 21.8557C12.2956 21.8594 11.1879 21.863 10.0805 21.8524ZM16.953 21.8594C15.9874 21.8557 15.0251 21.8666 14.0598 21.8557C13.6801 21.316 13.2788 20.7976 12.9024 20.2578C13.4667 20.2578 14.0313 20.2578 14.5923 20.2578C14.5956 20.453 14.5923 20.6449 14.5956 20.8403C14.7343 20.9751 14.8834 21.1063 15.0109 21.2523C15.036 21.4047 15.0148 21.5573 15.0218 21.7103C15.6711 21.7137 16.3176 21.7103 16.967 21.7103C16.9706 21.5573 16.9706 21.4083 16.967 21.2556C17.1057 21.1135 17.2477 20.9751 17.3931 20.8473C17.4001 20.6521 17.3965 20.4567 17.3965 20.2578C18.1423 20.2578 18.8909 20.2578 19.6367 20.2578C20.0058 20.8012 20.4141 21.316 20.7869 21.8557C19.5086 21.863 18.2307 21.8557 16.953 21.8594ZM21.3154 21.8594C21.2231 21.877 21.1985 21.7707 21.163 21.7103C21.2231 21.7103 21.2835 21.7103 21.3439 21.7103C21.3476 21.4083 21.3439 21.1029 21.3476 20.8012C21.3333 20.7372 21.401 20.7123 21.4432 20.684C21.8657 20.4673 22.3414 20.375 22.8101 20.3289C23.2894 20.3037 23.7757 20.3004 24.248 20.3963C24.3294 20.5738 24.4681 20.7195 24.578 20.8792C24.8121 21.2061 25.057 21.5291 25.288 21.8557C23.9675 21.8594 22.6395 21.8594 21.3154 21.8594ZM24.8227 20.5702H24.8725C24.9966 20.613 25.1101 20.6734 25.2276 20.7338C25.231 20.8649 25.231 21 25.2276 21.1314C25.0822 20.9539 24.9505 20.7657 24.8227 20.5702ZM27.1834 21.3373C27.1054 21.5148 27.0131 21.6854 26.9172 21.8557C26.5517 21.8594 26.1896 21.8557 25.8241 21.8557C25.7282 21.87 25.6963 21.7668 25.6465 21.7067C25.6996 21.7067 25.7528 21.7067 25.8062 21.7067C25.8132 21.387 25.7989 21.0641 25.8132 20.7405C25.9516 20.6482 26.1149 20.613 26.2712 20.5599C26.7077 20.4354 27.1515 20.3289 27.606 20.3146C27.503 20.6698 27.3361 21.0037 27.1834 21.3373ZM27.7656 19.9312H27.7586C26.6155 19.924 25.4689 19.9312 24.326 19.9276C24.262 19.7995 24.1733 19.686 24.0878 19.5724C23.9424 19.5724 23.7969 19.5758 23.6515 19.5867C23.7223 19.7075 23.8039 19.8177 23.8859 19.9276C22.8778 19.9276 21.8694 19.9276 20.861 19.9276C20.7726 19.9346 20.7049 19.8742 20.6342 19.8353C20.2047 19.5688 19.7749 19.3096 19.3453 19.047C19.2388 18.9793 19.1219 18.9226 19.0472 18.816C18.6499 18.2657 18.2486 17.722 17.8476 17.1717C17.7553 17.0615 17.6594 16.9553 17.5847 16.8311C17.1376 16.1882 16.6689 15.5596 16.2038 14.9309C16.0936 14.7889 15.991 14.6468 15.8915 14.4978C15.6322 14.1356 15.366 13.7805 15.1071 13.4217C14.9969 13.2727 14.887 13.113 14.7234 13.0168C14.578 12.9494 14.415 12.9388 14.2586 12.9388C13.6907 12.9424 13.1225 12.9351 12.5511 12.9424C12.434 12.9388 12.3629 13.0383 12.2919 13.1163C12.267 13.1163 12.2209 13.1163 12.1996 13.1163C12.2421 13.0453 12.2813 12.9779 12.3202 12.9066C12.4021 12.7612 12.4801 12.6191 12.5688 12.4771C12.8565 12.0048 13.1264 11.5218 13.4136 11.0531C13.4776 10.9323 13.545 10.8115 13.6197 10.698C13.7723 10.4567 13.9782 10.1868 14.2869 10.1726C14.972 10.1686 15.6608 10.1726 16.3459 10.1726C16.5198 10.1686 16.7077 10.2081 16.8395 10.3289C16.974 10.453 17.3859 11.0744 17.51 11.2198C17.826 11.639 18.1208 12.0722 18.4474 12.4844C18.5503 12.6228 18.6462 12.7685 18.7491 12.9066C19.1362 13.4432 19.5265 13.9757 19.9169 14.5084C20.0235 14.6505 20.13 14.7925 20.2365 14.9382C20.382 14.9346 20.531 14.9309 20.6803 14.9203C20.5844 14.7819 20.4812 14.6468 20.3856 14.5048C19.9949 13.9687 19.6118 13.429 19.2105 12.9033C19.1043 12.7646 19.0084 12.6228 18.9088 12.4807C18.5785 12.0227 17.2653 10.2257 17.1412 10.0694C17.0595 9.97009 16.967 9.87417 16.8395 9.83502C16.7044 9.79951 16.5623 9.78525 16.4206 9.78525C15.7673 9.78888 15.1177 9.78525 14.4645 9.78888C14.3294 9.78189 14.2444 9.89878 14.1697 9.9947C14.1272 9.9947 14.0883 9.99134 14.0456 9.99134C14.1166 9.85991 14.1949 9.73575 14.269 9.60432C14.4007 9.36271 14.5425 9.12837 14.6845 8.89039C14.8585 8.60991 15.0218 8.32216 15.1921 8.03805C15.3627 7.75756 15.4868 7.43122 15.76 7.22848C15.9591 7.14683 16.165 7.07943 16.3814 7.07943C17.116 7.07943 17.8509 7.07943 18.5822 7.07943C18.7986 7.08279 19.0084 7.14683 19.2069 7.22848C19.4983 7.42032 19.665 7.73631 19.8671 8.00617C20.0766 8.30091 20.293 8.59202 20.5064 8.8834C20.6873 9.11411 20.8576 9.35208 21.0246 9.59006C21.2872 9.95919 21.5573 10.3216 21.8232 10.6874C21.9155 10.8045 22.0078 10.9253 22.0895 11.0531C22.441 11.5291 22.7816 12.012 23.1401 12.4807C23.2536 12.6334 23.3674 12.7861 23.4737 12.9458C23.8574 13.4645 24.2265 13.9972 24.6241 14.5048C24.7343 14.6538 24.8406 14.8068 24.9435 14.9558C25.3518 15.5098 25.7458 16.071 26.1683 16.6177C26.2746 16.7634 26.3811 16.9091 26.4843 17.0582C26.981 17.7506 27.4888 18.436 27.993 19.125C27.911 19.3985 27.8436 19.6684 27.7656 19.9312Z" fill="white"/>
<path d="M31.7418 13.4114C31.4647 11.7206 30.9144 10.073 30.116 8.55677C29.3207 7.04727 28.2807 5.66583 27.0525 4.48323C25.2667 2.77154 23.0799 1.47568 20.7158 0.744135C20.1549 0.570197 19.5869 0.428139 19.012 0.31796C18.0749 0.144023 17.1235 0.0374791 16.1722 0.0408348C14.6423 0.0159466 13.1051 0.221763 11.6319 0.640947C9.98148 1.10627 8.41213 1.84509 6.99938 2.81432C4.61767 4.43709 2.69373 6.72064 1.49015 9.34145C0.765879 10.9181 0.30447 12.6158 0.123262 14.3417C-0.0255074 15.8543 0.0239892 17.3884 0.300835 18.8834C0.595578 20.4922 1.13864 22.0548 1.91241 23.5C2.92751 25.4033 4.33355 27.0973 6.01616 28.4469C7.37913 29.5442 8.9236 30.4142 10.5704 31.0109C12.0615 31.5503 13.6342 31.8596 15.2175 31.9413C15.4765 31.9483 15.739 31.9304 15.9983 31.9589C16.1191 31.9695 16.236 31.9413 16.3568 31.9413C16.6054 31.934 16.854 31.9519 17.0987 31.9161C18.2701 31.8417 19.4381 31.6286 20.5671 31.2947C23.3819 30.4603 25.9485 28.8196 27.8973 26.6284C29.864 24.441 31.2021 21.6924 31.7133 18.7947C32.0223 17.0193 32.0327 15.1904 31.7418 13.4114ZM30.2933 22.1505C29.2038 24.6684 27.4356 26.8879 25.2242 28.5106C22.8137 30.297 19.8747 31.3552 16.8786 31.5151C16.6761 31.5042 16.4776 31.547 16.2751 31.5436C15.9558 31.5436 15.6361 31.5579 15.3168 31.5185C14.8515 31.5185 14.3937 31.4617 13.9323 31.4049C12.2354 31.1812 10.5777 30.677 9.04748 29.91C7.48568 29.1359 6.0623 28.0881 4.84446 26.8417C3.07684 25.0271 1.75274 22.7757 1.043 20.3395C0.244068 17.5873 0.215824 14.6149 0.971696 11.8484C1.74547 8.99358 3.36096 6.37641 5.55839 4.39822C7.26224 2.85347 9.31761 1.69576 11.522 1.03524C11.6037 1.01063 11.6851 0.985466 11.7667 0.964213C12.4521 0.765387 13.1546 0.63032 13.8612 0.524056C14.0601 0.498889 14.2659 0.488262 14.4613 0.452748C14.699 0.456383 14.937 0.399616 15.1747 0.410242C15.5863 0.39626 16.0016 0.353475 16.4138 0.388989C16.6515 0.413877 16.8928 0.403251 17.1305 0.417513C17.2799 0.452748 17.4323 0.438486 17.585 0.467009C20.4144 0.744135 23.1582 1.83418 25.4194 3.56013C26.9851 4.74637 28.3196 6.2377 29.335 7.92115C30.2793 9.47987 30.9429 11.2058 31.2838 12.9955C31.8803 16.0531 31.5394 19.2917 30.2933 22.1505Z" fill="#0054A6"/>
<path d="M26.1687 16.625C25.7498 16.078 25.3522 15.5168 24.9439 14.9628C24.8373 14.8101 24.7347 14.6577 24.6245 14.5117C24.2269 14.0006 23.8614 13.4712 23.4741 12.9527C23.3715 12.7931 23.254 12.6407 23.1405 12.4877C22.782 12.019 22.4414 11.5324 22.0899 11.0601C22.0116 10.9323 21.9196 10.8115 21.8236 10.6944C21.5577 10.3289 21.2876 9.96673 21.025 9.59704C20.8547 9.35906 20.6877 9.12137 20.5068 8.89038C20.2934 8.59928 20.077 8.30789 19.8675 8.01343C19.6654 7.74329 19.4987 7.42366 19.2073 7.23546C19.0088 7.15381 18.799 7.09005 18.5826 7.08641C17.848 7.08641 17.1164 7.08641 16.3818 7.08641C16.1654 7.08278 15.9595 7.15045 15.7604 7.23546C15.4872 7.43457 15.3631 7.76482 15.1925 8.04531C15.0255 8.32942 14.8589 8.61689 14.6849 8.89765C14.5429 9.13199 14.4011 9.36997 14.2694 9.6113C14.1953 9.7391 14.117 9.86689 14.046 9.99861C14.0887 9.99861 14.1276 9.99861 14.1701 10.002C14.2448 9.90968 14.3298 9.79251 14.4649 9.79614C15.1181 9.79251 15.7677 9.79614 16.421 9.79251C16.5627 9.79251 16.7048 9.80314 16.8399 9.84229C16.964 9.88116 17.0599 9.97707 17.1416 10.0766C17.2658 10.2363 18.579 12.0296 18.9092 12.4877C19.0088 12.6298 19.1047 12.7718 19.2109 12.9105C19.6122 13.436 19.9953 13.9793 20.386 14.5117C20.4816 14.6538 20.5848 14.7855 20.6807 14.9276C20.5314 14.9382 20.386 14.9382 20.237 14.9452C20.386 14.9452 20.5314 14.9346 20.6807 14.9488C20.7233 14.9737 20.7551 15.0162 20.7873 15.0587C21.1066 15.4992 21.4296 15.936 21.7493 16.3764C21.9408 16.632 22.1041 16.9125 22.3172 17.1538C22.8211 17.8428 23.3253 18.5355 23.8329 19.2279C23.9182 19.3454 24.0102 19.4516 24.0706 19.5831C23.9252 19.5867 23.7761 19.5867 23.6304 19.5867C23.4637 19.3806 23.3144 19.1605 23.1584 18.9511C22.608 18.1874 22.0401 17.4346 21.5007 16.6639C21.4014 16.547 21.3125 16.4225 21.2235 16.2981C20.9008 15.847 20.5599 15.4032 20.2439 14.9452C20.1374 14.8031 20.0345 14.6577 19.9246 14.5157C19.5339 13.9829 19.1436 13.4502 18.7568 12.9139C18.6536 12.7755 18.5577 12.6298 18.4548 12.4913C18.1285 12.0828 17.8337 11.646 17.5177 11.2271C17.3899 11.0814 16.9819 10.46 16.8469 10.3359C16.7121 10.2148 16.5272 10.1759 16.3533 10.1795C15.6682 10.1829 14.9794 10.1795 14.2946 10.1795C13.9819 10.1972 13.7797 10.4637 13.6271 10.7053C13.549 10.8188 13.485 10.9393 13.421 11.0601C13.1335 11.5324 12.8639 12.0154 12.5764 12.4843C12.4875 12.6228 12.4061 12.7685 12.3278 12.9139C12.2887 12.9849 12.2462 13.0526 12.207 13.1233C12.2322 13.1233 12.2783 13.1233 12.2993 13.1233C12.3706 13.0453 12.4414 12.9458 12.5588 12.9494C13.1268 12.9458 13.6944 12.9494 14.266 12.9458C14.4224 12.9458 14.5854 12.9567 14.7314 13.0241C14.8944 13.12 15.0009 13.283 15.1145 13.429C15.3773 13.7875 15.6396 14.146 15.8989 14.5048C15.9984 14.6505 16.105 14.7961 16.2115 14.9382C16.6729 15.5702 17.145 16.1952 17.5924 16.8378C17.6668 16.9623 17.7624 17.0688 17.855 17.179C18.2526 17.726 18.657 18.2727 19.0549 18.823C19.1293 18.9295 19.2465 18.9866 19.3527 19.054C19.7825 19.3168 20.2154 19.5758 20.6416 19.8423C20.7126 19.8814 20.7834 19.9416 20.8689 19.9346C21.8768 19.9346 22.8852 19.9346 23.8933 19.9346C23.8116 19.8244 23.73 19.7109 23.6589 19.5937C23.8043 19.5831 23.95 19.5794 24.0955 19.5794C24.1844 19.6932 24.2694 19.8068 24.3334 19.9346C25.4766 19.9382 26.6231 19.9312 27.766 19.9382H27.7733C27.855 19.6717 27.9187 19.4018 28.0037 19.139C27.4998 18.4502 26.9923 17.7648 26.4951 17.0724C26.3852 16.9125 26.275 16.7671 26.1687 16.625Z" fill="#0054A6"/>
<path d="M13.4132 18.585C14.1587 18.127 14.9042 17.6726 15.6497 17.2179C15.6889 17.1966 15.7244 17.1611 15.7171 17.1116C15.7244 16.9161 15.7171 16.7173 15.7171 16.5185C15.905 16.5185 16.0899 16.5185 16.2781 16.5185C16.2957 16.7385 16.2711 16.9553 16.2924 17.1753C16.5194 17.3353 17.9464 18.1874 18.2339 18.3722C17.8505 17.7967 17.3997 17.2679 17.0449 16.6745C16.9845 16.6108 16.9171 16.5537 16.8637 16.483C16.4945 15.9715 16.1184 15.4673 15.749 14.9558C15.6427 14.8068 15.5396 14.6577 15.433 14.5084C15.1811 14.203 14.9716 13.8621 14.716 13.5601C14.6061 13.4181 14.4355 13.3294 14.251 13.3331C13.6014 13.3331 12.952 13.3294 12.2985 13.3331C12.164 13.3294 12.0396 13.3971 11.9685 13.5106C11.7591 13.8373 11.5779 14.1815 11.3687 14.5084C11.2764 14.6577 11.1911 14.8068 11.1058 14.9595C10.8432 15.4069 10.5807 15.851 10.3178 16.2981C10.275 16.3764 10.2219 16.4472 10.1934 16.5291C10.2504 16.6891 11.6562 18.5747 12.2205 19.3096C12.6145 19.0646 13.0158 18.8266 13.4132 18.585Z" fill="#0054A6"/>
<path d="M11.0602 19.9312C11.2839 19.9597 11.4827 19.7783 11.6105 19.6826C11.66 19.6505 11.7135 19.6219 11.7666 19.5901C11.3726 19.0716 10.9962 18.5389 10.6094 18.0168C10.3113 17.6085 8.95171 15.7478 8.6785 15.3747C8.57531 15.2327 8.44751 15.0764 8.25596 15.073C7.81916 15.066 7.379 15.073 6.94248 15.0696C6.75456 15.0624 6.58062 15.1723 6.47408 15.3252C6.1757 15.7548 5.8846 16.1882 5.57923 16.6177C5.46933 16.7741 5.35579 16.9304 5.2526 17.0934C5.19612 17.1823 5.13571 17.2679 5.08594 17.3599C5.13571 17.3599 5.18521 17.3635 5.23834 17.3672C5.31664 17.2855 5.38767 17.1647 5.51547 17.1681C5.82447 17.1681 6.13655 17.1611 6.44556 17.1717C6.71513 17.2321 6.88907 17.4701 7.04203 17.6795C7.49645 18.3118 7.96485 18.9332 8.41564 19.5688C8.50093 19.686 8.58594 19.7995 8.65725 19.924C9.45954 19.9312 10.2579 19.9276 11.0602 19.9312Z" fill="#0054A6"/>
<path d="M12.8253 19.4874C12.896 19.4374 12.9673 19.3876 13.0345 19.3381C13.9151 18.7128 14.8057 18.0951 15.6793 17.4631C15.2425 17.7221 14.8236 18.0101 14.3974 18.2867C14.0854 18.4964 12.36 19.6256 12.3457 19.6362C12.367 19.6328 12.417 19.6295 12.4383 19.6256C12.4489 19.6505 12.4735 19.7002 12.4878 19.7251C12.6013 19.6471 12.7115 19.5615 12.8253 19.4874Z" fill="#0054A6"/>
<path d="M8.19863 19.9276C8.12788 19.8101 8.04986 19.6966 7.96821 19.5867C8.11726 19.5758 8.26631 19.5724 8.41172 19.5724C8.26295 19.5724 8.11362 19.5831 7.96457 19.5688C7.88655 19.5154 7.84041 19.4267 7.78337 19.3521C7.47464 18.9262 7.16592 18.5034 6.85691 18.0808C6.70087 17.8607 6.5233 17.6015 6.23583 17.5587C5.9162 17.5481 5.59321 17.5587 5.27386 17.5554C5.02889 17.5481 4.83007 17.7259 4.69528 17.9141C4.46094 18.2514 4.22995 18.5923 3.99561 18.9262C3.95339 18.9723 3.98163 19.0361 3.98527 19.0892C4.08817 19.3666 4.13767 19.6574 4.24086 19.9312C5.55797 19.9276 6.87844 19.9312 8.19863 19.9276Z" fill="#0054A6"/>
<path d="M14.4401 18.5708C14.8626 18.2335 15.3028 17.9175 15.7144 17.566C14.8095 18.1944 13.9183 18.8445 13.0131 19.4765C12.9599 19.5154 12.9029 19.5512 12.8498 19.5901C12.7043 19.7002 12.555 19.8101 12.4062 19.917C12.4985 19.917 12.5942 19.924 12.6867 19.9276C13.2723 19.4765 13.8545 19.0218 14.4401 18.5708Z" fill="#0054A6"/>
<path d="M16.2793 17.573C16.833 18.0168 17.4009 18.4502 17.9619 18.887C18.3347 19.1709 18.7002 19.4623 19.0729 19.7464C19.1473 19.7995 19.222 19.8599 19.2966 19.917C19.3889 19.9382 19.4848 19.9382 19.5805 19.9346L19.5486 19.9061C18.8707 19.3876 18.1571 18.9153 17.472 18.4041C17.0707 18.1306 16.6873 17.8322 16.2793 17.573Z" fill="#0054A6"/>
<path d="M13.2332 19.8814C13.7514 19.4304 14.2695 18.9757 14.788 18.5246C15.0934 18.2514 15.4127 17.9885 15.7111 17.7081C15.2354 18.0596 14.7776 18.436 14.309 18.7984C13.8366 19.1748 13.354 19.5369 12.8926 19.9276C13.0025 19.917 13.1412 19.9701 13.2332 19.8814Z" fill="#0054A6"/>
<path d="M19.1082 19.9203C19.0371 19.8848 16.8503 18.1236 16.2754 17.7081C17.1166 18.4572 17.9723 19.1891 18.8171 19.9346C18.9127 19.9312 19.0089 19.9312 19.1082 19.9203Z" fill="#0054A6"/>
<path d="M15.7502 17.8252C15.4876 18.0243 15.2569 18.2548 15.0083 18.4681C14.5824 18.8479 14.1563 19.2279 13.734 19.6079C13.6205 19.7109 13.489 19.8034 13.4004 19.9312C13.4927 19.9312 13.5816 19.9312 13.6736 19.9312C14.3696 19.2313 15.0617 18.5285 15.7502 17.8252Z" fill="#0054A6"/>
<path d="M18.5866 19.9203C18.5724 19.8742 18.5332 19.8457 18.5013 19.8177C17.7594 19.1639 17.0318 18.4891 16.2793 17.8501C16.4353 18.0277 16.6059 18.191 16.769 18.3616C17.2874 18.887 17.8022 19.4161 18.3274 19.9346C18.4127 19.9312 18.5013 19.9346 18.5866 19.9203Z" fill="#0054A6"/>
<path d="M15.7846 17.9318C15.2024 18.5106 14.6485 19.1144 14.0769 19.7002C14.0095 19.7712 13.9315 19.8353 13.8887 19.9239C13.9776 19.9276 14.0699 19.9276 14.1585 19.9312C14.7019 19.2671 15.2519 18.6065 15.7846 17.9318Z" fill="#0054A6"/>
<path d="M18.1164 19.9276C17.893 19.6684 17.6444 19.4268 17.4101 19.1709C17.0018 18.7665 16.6257 18.3261 16.2031 17.9354C16.7428 18.6029 17.2859 19.2671 17.829 19.9312C17.9285 19.9312 18.0208 19.9312 18.1164 19.9276Z" fill="#0054A6"/>
<path d="M15.597 18.4183C15.6711 18.2905 15.76 18.1731 15.8132 18.0347C15.3554 18.6278 14.8974 19.2209 14.4396 19.8138C14.4183 19.8495 14.3968 19.8848 14.3828 19.9276C14.4715 19.9276 14.5604 19.9312 14.6527 19.9312C14.972 19.4304 15.281 18.9225 15.597 18.4183Z" fill="#0054A6"/>
<path d="M17.6277 19.9312C17.5564 19.7995 17.4537 19.6932 17.3685 19.5724C16.9708 19.0612 16.5804 18.5428 16.1758 18.0347C16.204 18.0984 16.2398 18.1588 16.2751 18.2195C16.6266 18.7911 16.9851 19.3591 17.3402 19.9312C17.4322 19.9312 17.5281 19.9312 17.6277 19.9312Z" fill="#0054A6"/>
<path d="M15.7791 18.3865C15.8074 18.3152 15.8325 18.2444 15.8501 18.1697C15.7044 18.3968 15.5803 18.6384 15.4455 18.8691C15.2537 19.2245 15.0336 19.5654 14.8633 19.9312C14.9589 19.9312 15.0548 19.9312 15.1544 19.9312C15.3602 19.4161 15.566 18.8976 15.7791 18.3865Z" fill="#0054A6"/>
<path d="M17.1345 19.9276C17.0743 19.7855 16.9924 19.6541 16.918 19.5193C16.698 19.1286 16.4779 18.7343 16.2539 18.3403C16.2186 18.2796 16.1901 18.2159 16.1406 18.1697C16.3571 18.7629 16.6127 19.3381 16.8434 19.9276C16.9393 19.9312 17.0386 19.9312 17.1345 19.9276Z" fill="#0054A6"/>
<path d="M16.6505 19.9276C16.4623 19.3591 16.2668 18.7911 16.0753 18.2262C16.0222 18.2262 15.9651 18.2262 15.912 18.2262C15.7666 18.6633 15.6172 19.0965 15.4685 19.5296C15.4257 19.6613 15.3725 19.7891 15.3477 19.9239C15.7845 19.9312 16.2173 19.9312 16.6505 19.9276Z" fill="#0054A6"/>
<path d="M19.2715 19.1214C19.3568 19.2313 19.4205 19.3666 19.545 19.4446C19.772 19.59 20.0027 19.7394 20.2265 19.8921C20.3187 19.9488 20.4286 19.9312 20.5316 19.9382L20.5212 19.8814C20.095 19.6362 19.694 19.3591 19.2715 19.1214Z" fill="#0054A6"/>
<path d="M11.416 19.9276C11.5329 19.9203 11.6716 19.9597 11.7745 19.8848C11.817 19.8566 11.8562 19.828 11.899 19.8034C11.8704 19.7606 11.8455 19.7179 11.817 19.6756C11.7779 19.7002 11.7387 19.7251 11.6999 19.7464C11.6006 19.8034 11.5083 19.8635 11.416 19.9276Z" fill="#0054A6"/>
<path d="M15.6528 20.46C15.6601 20.3537 15.6601 20.2472 15.6601 20.144C15.4685 20.144 15.2731 20.144 15.0815 20.144C15.0779 20.2506 15.0815 20.3571 15.0885 20.4639C15.2767 20.4567 15.4646 20.4567 15.6528 20.46Z" fill="#0054A6"/>
<path d="M16.9033 20.46C16.914 20.3537 16.914 20.2472 16.9103 20.1407C16.7188 20.1407 16.527 20.1407 16.3318 20.1407C16.3318 20.2399 16.3318 20.3395 16.3281 20.4388C16.5163 20.4815 16.7118 20.446 16.9033 20.46Z" fill="#0054A6"/>
<path d="M12.2607 20.2542C11.9164 20.2542 11.5686 20.2542 11.224 20.2542C11.2207 20.7372 11.224 21.2237 11.2207 21.7067C11.0288 21.7067 10.837 21.7067 10.6491 21.7067C10.6421 21.3801 10.6561 21.0531 10.6421 20.7265C10.1306 20.4567 9.55206 20.3361 8.98047 20.318C8.99837 20.3608 9.02325 20.3999 9.04786 20.4388C9.39238 20.9111 9.73662 21.3834 10.0845 21.8524C11.1922 21.8594 12.2995 21.8557 13.4075 21.8557C13.3859 21.8202 13.3681 21.7811 13.3471 21.7492C12.9849 21.2483 12.6085 20.762 12.2607 20.2542Z" fill="#0054A6"/>
<path d="M17.3965 20.2542C17.3965 20.4497 17.4001 20.6449 17.3931 20.8437C17.2438 20.9751 17.1056 21.1136 16.9669 21.2523C16.9706 21.4047 16.9706 21.554 16.9669 21.7067C16.3176 21.7067 15.6711 21.7067 15.0218 21.7067C15.0148 21.554 15.036 21.3977 15.0108 21.2483C14.8833 21.1029 14.7343 20.9751 14.5956 20.8364C14.5922 20.6412 14.5956 20.4497 14.5922 20.2542C14.0279 20.2578 13.4633 20.2542 12.9023 20.2542C13.2787 20.7942 13.68 21.316 14.0598 21.8524C15.0251 21.863 15.9874 21.8524 16.953 21.8557C18.2306 21.8524 19.5125 21.863 20.7902 21.8524C20.4174 21.3127 20.0092 20.7976 19.6403 20.2542C18.8909 20.2542 18.1456 20.2542 17.3965 20.2542Z" fill="#0054A6"/>
<path d="M20.4352 20.7338C20.5487 20.8759 20.6376 21.0389 20.7688 21.1667C20.7688 20.8616 20.7688 20.5599 20.7688 20.2542C20.5454 20.2542 20.3253 20.2542 20.1016 20.2542C20.1938 20.4281 20.3253 20.5738 20.4352 20.7338Z" fill="#0054A6"/>
<path d="M8.51899 20.3146C8.08918 20.318 7.65965 20.3856 7.25137 20.5171C7.08834 20.5738 6.91776 20.634 6.77235 20.7338C6.7332 21.0531 6.76871 21.3834 6.75473 21.7067C6.56261 21.703 6.37106 21.7067 6.18286 21.703C6.18286 21.38 6.18286 21.0568 6.18286 20.7338C5.86015 20.5808 5.50836 20.4992 5.1644 20.4211C4.90853 20.3714 4.64958 20.3219 4.38672 20.3146C4.5573 20.8507 4.81988 21.3552 5.07212 21.8524C6.58415 21.8557 8.09645 21.8557 9.60847 21.8524C9.48431 21.632 9.31401 21.4404 9.17195 21.2307C8.95551 20.9253 8.71054 20.6379 8.51899 20.3146Z" fill="#0054A6"/>
<path d="M24.2491 20.3963C23.7768 20.3003 23.2905 20.3037 22.8112 20.3289C22.3425 20.375 21.8668 20.4673 21.4443 20.684C21.402 20.7086 21.3344 20.7372 21.3486 20.8012C21.345 21.1029 21.352 21.4083 21.345 21.7103C21.2846 21.7103 21.2242 21.7103 21.1641 21.7103C21.1996 21.7707 21.2242 21.877 21.3165 21.8594C22.6406 21.8594 23.965 21.863 25.2891 21.8594C25.0581 21.5291 24.8131 21.2095 24.5791 20.8826C24.4692 20.7195 24.3341 20.5738 24.2491 20.3963Z" fill="#0054A6"/>
<path d="M25.8132 20.7441C25.7989 21.064 25.8132 21.387 25.8062 21.7103C25.7527 21.7103 25.6996 21.7103 25.6465 21.7103C25.6923 21.7707 25.7281 21.8736 25.8241 21.8593C26.1895 21.8593 26.5517 21.863 26.9172 21.8593C27.0131 21.6924 27.1054 21.5185 27.1834 21.3406C27.3361 21.007 27.5067 20.6734 27.6059 20.318C27.1515 20.3361 26.7044 20.4424 26.2712 20.5632C26.1149 20.613 25.9516 20.6521 25.8132 20.7441Z" fill="#0054A6"/>
<path d="M25.2308 20.7338C25.1139 20.6767 25.0001 20.613 24.8762 20.5702H24.8262C24.9503 20.762 25.0854 20.9539 25.2344 21.1314C25.2344 20.9964 25.2344 20.8649 25.2308 20.7338Z" fill="#0054A6"/>
<path d="M14.2593 0.925053C14.4936 0.900445 14.7277 0.864651 14.9657 0.864651C15.4945 0.804248 16.0305 0.836407 16.563 0.832771C18.0185 0.893174 19.4738 1.15268 20.8549 1.62472C23.1586 2.4024 25.2671 3.75195 26.9427 5.51342C28.3023 6.93372 29.3815 8.62388 30.0948 10.46C31.3446 13.6418 31.4617 17.2536 30.4285 20.5134C29.6192 23.1021 28.0893 25.4567 26.0624 27.257C25.6329 27.6407 25.1855 28.0064 24.7098 28.3294C24.7134 27.715 24.7098 27.1007 24.7098 26.4902C24.7134 26.316 24.7028 26.1351 24.6284 25.9751C24.4578 25.5383 24.0247 25.2542 23.5811 25.1476C23.8331 25.1692 24.0851 25.1513 24.337 25.1583C24.4366 25.0696 24.5325 24.981 24.6211 24.8811C22.8141 24.8744 21.0076 24.8811 19.2042 24.8778C19.41 24.693 19.4561 24.4127 19.4989 24.1535C19.2394 24.1499 18.9805 24.1499 18.7212 24.1499C18.6505 24.1426 18.5934 24.1888 18.537 24.2279C18.2987 24.1784 18.0398 24.1071 17.8091 24.2245C17.5926 24.3132 17.4506 24.5157 17.3938 24.7391C17.3619 24.7002 17.3297 24.6577 17.2906 24.6222C17.0563 24.6009 16.8222 24.6186 16.5879 24.6149C16.5842 24.7002 16.5809 24.7855 16.5842 24.8744C15.7361 24.6009 14.8558 24.4304 13.9682 24.3736C13.6167 24.3275 13.2582 24.3557 12.903 24.3484C12.4986 24.3381 12.0937 24.4055 11.6927 24.4267C11.6645 24.3347 11.625 24.2458 11.5862 24.1569C11.1211 24.1569 10.6597 24.1535 10.1944 24.1569C10.2942 24.3381 10.4363 24.4908 10.5638 24.6507C10.3085 24.7002 10.0632 24.7785 9.81465 24.8565C9.75816 24.8744 9.69776 24.8851 9.63735 24.8851C8.87785 24.8851 8.11806 24.8811 7.35827 24.8887C7.4472 24.988 7.54647 25.0803 7.65301 25.1583C7.58925 25.1619 7.52158 25.1653 7.45754 25.1692C7.45055 25.5456 7.45419 25.9256 7.45419 26.302C7.39378 26.302 7.33702 26.3054 7.28025 26.3054C7.26599 26.6037 7.28025 26.9055 7.27326 27.2039C7.33338 27.2108 7.39714 27.2181 7.45754 27.2285C7.45419 27.6407 7.45754 28.0526 7.45754 28.4611C5.39882 27.0654 3.70559 25.1373 2.55542 22.9281C1.92706 21.7103 1.46202 20.4102 1.18154 19.068C0.571078 16.1065 0.851279 12.967 2.00872 10.1795C3.1944 7.29949 5.29591 4.80676 7.93349 3.15184C9.83981 1.94435 12.0191 1.17729 14.2593 0.925053ZM15.1396 3.56711C14.6284 3.6099 14.1209 3.67393 13.6167 3.76622C13.9469 3.7981 14.2805 3.77321 14.6105 3.78048C15.7112 3.78048 16.8116 3.78048 17.912 3.78048C18.0646 3.78048 18.2207 3.78747 18.3734 3.76622C17.7523 3.64541 17.1239 3.57075 16.4922 3.55285C16.0412 3.49636 15.5904 3.56012 15.1396 3.56711ZM11.2028 4.50112C11.1636 4.52265 11.1035 4.52964 11.0926 4.58305C11.4016 4.59703 11.7106 4.58641 12.0191 4.59004C14.9905 4.58641 17.9617 4.59703 20.9363 4.58305C20.8868 4.55117 20.8407 4.51901 20.7875 4.49748C20.4536 4.36269 20.1164 4.23462 19.7755 4.12835C19.6231 4.08221 19.4598 4.11074 19.2998 4.10347C17.2162 4.10682 15.136 4.09647 13.0523 4.10682C12.8037 4.09983 12.5518 4.09647 12.3032 4.10682C11.9268 4.21001 11.5649 4.35906 11.2028 4.50112ZM9.53416 5.3571C9.39239 5.45302 9.22908 5.52768 9.10491 5.65156C9.69776 5.66582 10.2903 5.65156 10.8832 5.65548C13.1197 5.65548 15.356 5.65548 17.5926 5.65548C19.3602 5.65156 21.1281 5.66247 22.8924 5.65156C22.6863 5.47427 22.4382 5.34983 22.2073 5.20777C22.0937 5.15128 21.9872 5.0481 21.8488 5.06236C17.919 5.06571 13.9897 5.05872 10.0599 5.06571C9.87533 5.14038 9.7081 5.25755 9.53416 5.3571ZM7.18433 7.22147C10.042 7.22846 12.903 7.21448 15.7607 7.22846C15.4875 7.42729 15.3633 7.75755 15.1927 8.03803L15.1821 8.01678C15.1645 8.01342 15.129 8.00615 15.1113 8.00279C12.2288 8.00279 9.34988 8.00615 6.46733 7.99916C6.23663 8.28663 5.99502 8.56739 5.80682 8.88339C8.76767 8.88702 11.7282 8.88339 14.6888 8.88339C14.5467 9.11773 14.4047 9.3557 14.2735 9.59703C14.1916 9.55089 14.096 9.58641 14.0073 9.58277C13.3219 9.57942 12.6371 9.58641 11.9483 9.58277C11.405 9.57578 10.8583 9.59703 10.3155 9.57242C9.9746 9.59368 9.63008 9.57578 9.28612 9.58277C8.49082 9.57942 7.69915 9.59368 6.90385 9.57578C6.56297 9.59368 6.21901 9.57942 5.87812 9.58277C5.69692 9.59004 5.51263 9.55089 5.33478 9.59368C5.15385 9.88115 4.99781 10.1902 4.84485 10.4922C4.81297 10.5559 4.78836 10.6197 4.77074 10.6874C7.72041 10.6943 10.6704 10.691 13.6203 10.691C13.542 10.8045 13.4782 10.9253 13.4142 11.0459L13.4002 11.0282C13.3541 11.0176 13.3079 11.0103 13.2615 11.014C10.3756 11.0176 7.48607 11.0103 4.60016 11.0176C4.40133 11.4897 4.22041 11.9692 4.08198 12.4664C6.91112 12.4771 9.74026 12.4628 12.566 12.4737C12.4771 12.6121 12.3955 12.7575 12.3174 12.9032C9.53081 12.8962 6.74418 12.8996 3.95754 12.9032C3.83674 13.429 3.71258 13.9614 3.67706 14.5014C6.24026 14.5014 8.80654 14.4941 11.3697 14.5048C11.2775 14.6538 11.1922 14.8031 11.1069 14.9558C10.9402 14.8921 10.7663 14.9594 10.596 14.9382C10.4539 14.9133 10.3118 14.9594 10.1698 14.9382C9.63735 14.9522 9.10491 14.9167 8.57248 14.9452C8.25285 14.9167 7.93349 14.9346 7.61386 14.9309C7.2232 14.9382 6.8331 14.9167 6.44244 14.9488C6.2864 14.9558 6.13372 14.9167 5.98075 14.9452C5.75732 14.9522 5.53361 14.9097 5.30654 14.9418C4.9623 14.9452 4.61806 14.9522 4.27717 14.9382C4.05682 14.9771 3.83338 14.9024 3.61666 14.9558C3.59205 15.4706 3.56017 15.9891 3.59569 16.5042C3.6024 16.5433 3.60967 16.5822 3.62393 16.6214C4.27717 16.6107 4.93042 16.625 5.58338 16.6144C5.4732 16.7704 5.35967 16.9267 5.25676 17.09L5.24613 17.0688C5.18573 17.0475 5.12561 17.0545 5.06521 17.0545C4.59289 17.0545 4.12085 17.0545 3.64518 17.0545C3.68405 17.7402 3.81912 18.4183 3.98607 19.0858C4.08897 19.363 4.13847 19.6541 4.24166 19.9276C4.28053 20.059 4.32667 20.1868 4.37645 20.311H4.38707C4.55765 20.8473 4.82024 21.3515 5.07248 21.8487C6.5845 21.8557 8.0968 21.8523 9.60883 21.8487C9.48467 21.6286 9.31437 21.4365 9.17231 21.2271C8.9595 20.9183 8.7109 20.6306 8.51934 20.3076C8.67203 20.3037 8.82443 20.3037 8.98047 20.311C8.99837 20.3537 9.02326 20.3926 9.04787 20.4318C9.39239 20.9041 9.73663 21.3764 10.0845 21.8487C11.1922 21.8557 12.2995 21.8523 13.4075 21.8523C13.386 21.8168 13.3681 21.7777 13.3471 21.7455C12.9883 21.245 12.6122 20.7584 12.2643 20.2506C12.4771 20.2506 12.6936 20.2506 12.9066 20.2506C13.283 20.7903 13.6841 21.3126 14.0638 21.8487C15.0297 21.8593 15.9917 21.8487 16.957 21.8523C18.2349 21.8487 19.5165 21.8557 20.7945 21.8487C20.4215 21.3087 20.0132 20.7942 19.6443 20.2506C19.8004 20.2506 19.9533 20.2506 20.1094 20.2506C20.2014 20.4211 20.3295 20.5702 20.443 20.7265C20.5565 20.8686 20.6455 21.0319 20.7766 21.16C20.7766 21.3406 20.7766 21.5185 20.7766 21.6994C20.908 21.6994 21.0395 21.6994 21.1706 21.6994C21.2095 21.7601 21.231 21.8666 21.3236 21.8487C22.6474 21.8487 23.9715 21.8487 25.2956 21.8487C25.0649 21.5185 24.82 21.1988 24.5856 20.8722C24.4757 20.7122 24.337 20.5666 24.2554 20.3893C24.4687 20.4281 24.6815 20.4852 24.8804 20.5632H24.8309C24.955 20.755 25.0898 20.9466 25.2389 21.1244C25.2389 21.316 25.2389 21.5112 25.2425 21.703C25.3773 21.6994 25.5157 21.703 25.6541 21.703C25.7003 21.7634 25.7358 21.8666 25.8317 21.8523C26.1972 21.8523 26.5596 21.8557 26.9251 21.8523C27.0207 21.6854 27.1133 21.5112 27.1913 21.3339C27.3437 21 27.5143 20.6661 27.6139 20.311H27.6242C27.6776 20.1868 27.7238 20.0554 27.7663 19.9276H27.7735C27.8552 19.6614 27.919 19.3912 28.004 19.1286C28.1961 18.4539 28.3096 17.7539 28.3697 17.0545C27.745 17.0545 27.12 17.0475 26.4953 17.0582C26.396 16.9091 26.2861 16.7634 26.1793 16.6177C26.8362 16.6144 27.4894 16.6144 28.146 16.6177C28.2349 16.6144 28.3272 16.632 28.4089 16.5892C28.4265 16.0425 28.4265 15.4955 28.3804 14.9488C27.7556 14.9488 27.1346 14.9309 26.5135 14.9488C26.0624 14.9558 25.6113 14.9276 25.1608 14.9309C25.0932 14.9309 25.0188 14.9239 24.955 14.9594C24.8485 14.8068 24.7453 14.6538 24.6354 14.5084C25.8672 14.4978 27.1024 14.5084 28.3342 14.5014C28.2775 13.9614 28.1709 13.4323 28.0431 12.9066C26.5876 12.9032 25.129 12.9066 23.6734 12.9032C23.613 12.9066 23.5456 12.8926 23.4886 12.9209L23.4852 12.9457C23.3823 12.7861 23.2651 12.6334 23.1516 12.4807C24.7419 12.4664 26.3323 12.4843 27.9226 12.4737C27.7839 11.9801 27.6066 11.4936 27.4008 11.0246C25.7179 11.0213 24.0353 11.0246 22.3563 11.0246C22.2747 11.0246 22.193 11.0176 22.115 11.0389L22.1007 11.0568C22.0227 10.929 21.9301 10.8082 21.8345 10.691C22.0546 10.7192 22.2783 10.6943 22.4981 10.7013C24.0814 10.7013 25.6611 10.7013 27.2445 10.7013C27.0881 10.3146 26.8717 9.95917 26.6695 9.59703C25.8812 9.57242 25.0968 9.61129 24.3085 9.58277C24.1421 9.60067 23.9785 9.59368 23.8118 9.57942C23.5632 9.60067 23.3146 9.58641 23.0663 9.59004C22.7822 9.58641 22.4981 9.60067 22.2143 9.57242C21.941 9.57242 21.6678 9.60794 21.3977 9.58277C21.2775 9.59004 21.1564 9.59004 21.0322 9.59368C20.8616 9.3557 20.6952 9.11773 20.514 8.88702C20.5851 8.89038 20.6525 8.89401 20.7235 8.89401C22.5445 8.89038 24.3692 8.89765 26.1902 8.89038C26.0233 8.592 25.7892 8.33305 25.5795 8.05928C25.5512 8.00615 25.4911 8.00279 25.4374 8.00615C23.5811 8.00978 21.728 8.00279 19.8714 8.00978C19.6692 7.73993 19.5023 7.4203 19.2112 7.2321C21.075 7.21784 22.9422 7.2321 24.8093 7.22483C24.5962 6.97259 24.337 6.76678 24.0957 6.54306C22.5196 6.53607 20.9472 6.54306 19.3711 6.53971C15.5479 6.54306 11.7246 6.53607 7.90161 6.54306C7.66336 6.77041 7.40106 6.97259 7.18433 7.22147ZM9.35687 22.1043C8.69999 22.1717 8.04703 22.3174 7.43629 22.5693C7.34764 22.6121 7.24837 22.6015 7.15581 22.6015C6.61638 22.6015 6.07331 22.6015 5.53361 22.6015C5.55877 22.6904 5.61526 22.7648 5.6614 22.8431C5.69692 22.8501 5.73271 22.8607 5.77158 22.8644C6.32891 22.8859 6.88623 22.8252 7.44328 22.8677C7.62113 22.8535 7.79843 22.8431 7.97236 22.8644C8.32751 22.882 8.68573 22.8431 9.04088 22.8644C9.29982 22.8322 9.55933 22.8716 9.81828 22.8535C10.0207 22.8716 10.2229 22.8358 10.4254 22.8535C10.6136 22.8465 10.8018 22.8644 10.9933 22.8501C11.1105 22.8574 11.2277 22.875 11.3485 22.8574C11.5151 22.8322 11.6821 22.8644 11.8454 22.8644C12.8146 22.8395 13.7833 22.8535 14.7562 22.8535C15.04 22.8358 15.3242 22.8607 15.608 22.8535C15.917 22.8252 16.226 22.8716 16.5344 22.8431C17.3015 22.8574 18.0716 22.8322 18.8421 22.8501C19.0907 22.8216 19.3393 22.875 19.5873 22.8465C19.882 22.8716 20.1804 22.8574 20.4749 22.8465C20.6276 22.875 20.7836 22.8358 20.9363 22.8574C21.2204 22.875 21.5042 22.8322 21.7884 22.8535C22.0118 22.8289 22.2358 22.882 22.4592 22.8501C22.7433 22.8607 23.0272 22.8535 23.3113 22.8607C23.5347 22.8644 23.7621 22.8252 23.9858 22.8501C24.1027 22.8677 24.2235 22.8535 24.3407 22.8465C24.4827 22.8535 24.6248 22.8677 24.7668 22.8574C24.9441 22.8358 25.1217 22.8786 25.299 22.8574C25.4768 22.8289 25.6541 22.8786 25.8317 22.8574C26.002 22.8289 26.1723 22.8963 26.3395 22.8358C26.3818 22.7542 26.4564 22.6868 26.4634 22.5909C21.8879 22.5979 17.3121 22.5909 12.733 22.5945C12.6013 22.6085 12.4914 22.5341 12.3742 22.495C11.7246 22.2573 11.0395 22.1113 10.3507 22.0831C10.0138 22.0369 9.68349 22.097 9.35687 22.1043ZM17.7238 23.6955C17.4327 23.7094 17.1418 23.6955 16.8471 23.7022C13.3328 23.7022 9.81828 23.6988 6.30402 23.7061C6.35715 23.7947 6.42119 23.8728 6.49222 23.9508C12.8286 23.9544 19.1614 23.9544 25.4981 23.9508C25.5691 23.8728 25.6399 23.7984 25.686 23.7022C24.8695 23.6988 24.0532 23.7022 23.2366 23.7022C23.1516 23.6988 23.0627 23.7131 22.981 23.6885C22.3493 23.429 21.6782 23.262 21.0003 23.2053C19.8857 23.0878 18.7531 23.2799 17.7238 23.6955Z" fill="#0093D8"/>
<path d="M18.4512 12.4843C18.6039 12.4843 18.7568 12.4807 18.9092 12.4807C19.0121 12.6191 19.1047 12.7645 19.211 12.9033C19.0586 12.9066 18.9056 12.9066 18.7529 12.9105C18.6503 12.7645 18.5544 12.6228 18.4512 12.4843Z" fill="#0093D8"/>
<path d="M15.4336 14.5084C15.5863 14.5048 15.739 14.5014 15.8916 14.5014C15.9912 14.6468 16.0977 14.7925 16.204 14.9309C16.0516 14.9309 15.8986 14.9167 15.7496 14.9522C15.6433 14.8068 15.5401 14.6577 15.4336 14.5084Z" fill="#0093D8"/>
<path d="M19.9219 14.5048C20.0776 14.5048 20.234 14.5048 20.39 14.5014C20.4859 14.6435 20.5891 14.7746 20.6847 14.9167C20.536 14.9276 20.39 14.9309 20.2409 14.9346C20.1347 14.7925 20.0281 14.6468 19.9219 14.5048Z" fill="#0093D8"/>
<path d="M8.4159 19.5724C8.50119 19.6893 8.5862 19.8034 8.65751 19.9312C8.50454 19.9312 8.35186 19.9312 8.19918 19.9312C8.12843 19.8138 8.05041 19.7002 7.96875 19.5901C8.1178 19.5758 8.26685 19.5758 8.4159 19.5724Z" fill="#0093D8"/>
<path d="M11.8164 19.6717C11.9372 19.5688 12.1042 19.5548 12.2529 19.5724C12.2068 19.6043 11.9655 19.7536 11.8944 19.7995C11.8698 19.757 11.8449 19.7145 11.8164 19.6717Z" fill="#0093D8"/>
<path d="M19.334 19.5937C19.4442 19.5193 19.6038 19.6043 19.7034 19.6647C19.7246 19.764 19.7741 19.8495 19.8312 19.9312H19.8099C19.7565 19.8957 19.7034 19.8565 19.65 19.8177C19.565 19.7536 19.4724 19.6966 19.3838 19.6398L19.334 19.5937Z" fill="#0093D8"/>
<path d="M23.6484 19.5867C23.7941 19.5758 23.9398 19.5724 24.0852 19.5724C24.1742 19.686 24.2592 19.7995 24.3232 19.9276C24.1775 19.9276 24.0285 19.9276 23.8828 19.9276C23.8011 19.8177 23.7197 19.7075 23.6484 19.5867Z" fill="#0093D8"/>
<path d="M12.3446 19.6328C12.3659 19.6295 12.4159 19.6256 12.4372 19.6219C12.4515 19.6471 12.4724 19.6966 12.4867 19.7215C12.4053 19.7782 12.327 19.8353 12.2454 19.8921L12.1959 19.9203C12.1139 19.9312 12.0289 19.9312 11.9473 19.9312L11.9719 19.8848C12.0821 19.8068 12.1959 19.7321 12.3094 19.6574C12.3164 19.6504 12.334 19.6398 12.3446 19.6328Z" fill="#0093D8"/>
<path d="M12.043 25.1476C12.444 25.1513 12.8453 25.1513 13.2499 25.1476C13.2426 25.6376 13.2463 26.1242 13.2499 26.6144C13.0156 26.6144 12.7812 26.6144 12.5469 26.6144C12.3839 26.1242 12.199 25.6415 12.043 25.1476Z" fill="#0093D8"/>
<path d="M21.9486 25.1476C22.2221 25.1476 22.4987 25.1619 22.7724 25.1407C22.6161 25.1834 22.4634 25.2399 22.325 25.3255C22.1866 25.4072 22.08 25.5277 21.9486 25.62C21.9416 25.4636 21.9416 25.304 21.9486 25.1476Z" fill="#0093D8"/>
<path d="M9.17188 25.1795C9.29939 25.1407 9.43446 25.1549 9.56589 25.1549C9.93865 25.1583 10.3081 25.1477 10.6805 25.1619C10.6308 25.3574 10.5491 25.5456 10.4854 25.7374C10.4283 25.8862 10.3931 26.0461 10.3151 26.1882C10.2155 25.9821 10.1199 25.762 9.95292 25.5987C9.7471 25.3786 9.45571 25.2685 9.17188 25.1795Z" fill="#0093D8"/>
<path d="M14.5 25.1476C14.6669 25.1513 14.8303 25.1513 14.9969 25.1476C15.0006 25.4072 15.0252 25.6661 14.9829 25.9217C14.8194 25.6695 14.649 25.4175 14.5 25.1476Z" fill="#0093D8"/>
<path d="M16.4217 25.1476C16.4997 25.1476 16.5777 25.1476 16.6557 25.1513C16.7088 25.2436 16.7944 25.3182 16.8406 25.4175C16.7267 25.8191 16.5883 26.2164 16.4569 26.6144L16.3965 26.7243C16.3965 26.7243 16.4147 26.2131 16.4107 26.0212C16.4147 25.7301 16.4071 25.439 16.4217 25.1476Z" fill="#0093D8"/>
<path d="M18.4537 25.1476C18.5566 25.1476 18.6635 25.1513 18.7697 25.1476C18.777 25.6415 18.777 26.1351 18.7697 26.6283C18.7558 26.6214 18.7661 26.7492 18.7558 26.7422C18.6098 26.3266 18.4325 25.7726 18.3047 25.3501C18.3545 25.2861 18.4076 25.2187 18.4537 25.1476Z" fill="#0093D8"/>
<path d="M20.0352 25.1476C20.1985 25.1513 20.3654 25.1513 20.5284 25.1476C20.5284 25.4072 20.536 25.6661 20.5251 25.9256C20.3478 25.677 20.1808 25.4175 20.0352 25.1476Z" fill="#0093D8"/>
<path d="M12.6337 26.8663C12.8397 26.863 13.0419 26.8663 13.248 26.8663C13.241 27.3423 13.248 27.8182 13.241 28.2939C13.2444 28.3509 13.2338 28.4147 13.262 28.4678C13.4256 28.5 13.5923 28.4787 13.7559 28.4824C14.0358 28.4787 14.3163 28.493 14.5967 28.4715C14.6043 28.2195 14.5861 27.9636 14.611 27.7117C14.8028 27.9424 14.9306 28.2232 15.1152 28.4575C15.2217 28.5 15.3423 28.4787 15.4561 28.4824C16.0526 28.4715 16.6524 28.4964 17.2489 28.4678C17.2768 28.3546 17.2984 28.2335 17.3481 28.1272C17.5008 28.0881 17.6569 28.1093 17.8132 28.1272C17.8487 28.2408 17.8839 28.3546 17.9194 28.4678C18.2816 28.5 18.6437 28.4754 19.0059 28.4824C19.3786 28.4754 19.7547 28.5 20.1278 28.4678C20.1418 28.2195 20.092 27.9673 20.1557 27.7259C20.3087 27.9424 20.4401 28.1661 20.5856 28.3898C20.6141 28.4326 20.646 28.4857 20.7097 28.4787C20.8873 28.493 21.0646 28.4787 21.2422 28.4824C21.4729 28.4787 21.7072 28.4964 21.9343 28.4645C21.9343 28.3224 21.9382 28.177 21.9415 28.035C22.0979 28.1591 22.2396 28.3012 22.4245 28.3865C22.8006 28.571 23.241 28.571 23.6418 28.4645C23.9331 28.4824 24.224 28.493 24.5114 28.4678C22.1297 30.1015 19.2651 31.0285 16.3753 31.0889C15.9494 31.0817 15.5235 31.1102 15.0976 31.0674C12.6127 30.9326 10.163 30.1586 8.04752 28.8445C7.86631 28.7273 7.67476 28.6208 7.50781 28.4857C7.82409 28.4754 8.1398 28.4824 8.45915 28.4787C8.8143 28.4787 9.18007 28.4894 9.52068 28.3722C9.52431 28.3971 9.53466 28.4469 9.54221 28.4715C9.79417 28.493 10.0495 28.4787 10.3017 28.4824C10.5324 28.4787 10.7668 28.4964 10.9972 28.4678C11.0293 28.3546 11.0542 28.2408 11.1074 28.1342C11.2707 28.0881 11.4446 28.1166 11.6079 28.1272C11.6471 28.2408 11.6577 28.3722 11.7287 28.4715C11.892 28.5 12.0554 28.4787 12.222 28.4857C12.5414 28.4824 12.8646 28.4964 13.184 28.4754C13.0173 27.9318 12.8219 27.399 12.6337 26.8663Z" fill="#0093D8"/>
<path d="M15.7187 16.5185C15.9066 16.5185 16.0915 16.5185 16.2797 16.5185C16.2973 16.7352 16.2727 16.9553 16.2939 17.1753C16.521 17.3387 20.3655 19.6717 20.6032 19.821C20.6211 19.8708 20.5498 19.8672 20.5218 19.8775C20.2766 19.7464 16.5601 17.4488 16.3115 17.3244C16.6345 17.5481 19.9005 19.6756 20.2304 19.8921C20.2271 19.9203 20.1026 19.9097 20.085 19.9133C19.7618 19.7145 16.6452 17.644 16.3115 17.4631C16.6843 17.7329 19.4424 19.6647 19.8152 19.9346C19.8294 19.9807 19.5702 19.8848 19.5845 19.9312C19.1835 19.6614 16.6913 17.8359 16.283 17.573C16.8367 18.0168 18.7394 19.4765 19.304 19.9133C19.304 19.9455 19.1334 19.9312 19.1124 19.917C18.5445 19.4874 16.8549 18.12 16.2797 17.7044C17.1211 18.4539 17.9765 19.1851 18.8213 19.9312C18.9172 19.9312 19.0165 19.9346 19.1124 19.9203C19.1762 19.9097 19.24 19.9027 19.304 19.917C19.3963 19.9382 19.4922 19.9382 19.5878 19.9346L19.5559 19.906C19.5559 19.906 19.7335 19.9382 19.8152 19.9346H19.8364C19.9005 19.9346 19.9606 19.9312 20.0246 19.9239L20.0817 19.9133C20.1312 19.9027 20.1773 19.8957 20.2271 19.8921C20.3194 19.9488 20.4293 19.9312 20.5322 19.9382L20.5218 19.8814C20.5498 19.8599 20.575 19.8423 20.6032 19.8244L20.6354 19.8423C20.7061 19.8814 20.7771 19.9416 20.8622 19.9346C21.8705 19.9346 22.8789 19.9346 23.887 19.9346C24.0325 19.9346 24.1815 19.9346 24.3272 19.9346C25.4701 19.9382 26.6166 19.9312 27.7598 19.9382C27.717 20.0696 27.6745 20.1974 27.6177 20.3219H27.6071C27.1527 20.3395 26.7056 20.446 26.2724 20.5666C26.1161 20.62 25.9528 20.6555 25.8143 20.748C25.8001 21.0674 25.8143 21.3907 25.8073 21.7137C25.7539 21.7137 25.7008 21.7137 25.6477 21.7137C25.5092 21.7137 25.3742 21.7137 25.2358 21.7137C25.2288 21.5221 25.2321 21.3266 25.2321 21.1348C25.2321 21.0036 25.2321 20.8686 25.2321 20.7371C25.1152 20.6804 25.0014 20.6163 24.8775 20.5738C24.6751 20.4922 24.4653 20.4388 24.2525 20.3999C23.7805 20.3037 23.2942 20.311 22.8146 20.3322C22.3462 20.3784 21.8705 20.4709 21.4483 20.6874C21.4055 20.7123 21.3381 20.7405 21.3521 20.8045C21.3487 21.1063 21.356 21.4119 21.3487 21.7137C21.2883 21.7137 21.2282 21.7137 21.1678 21.7137C21.0361 21.7137 20.9049 21.7137 20.7738 21.7137C20.7738 21.5327 20.7738 21.3552 20.7738 21.1739C20.7738 20.8686 20.7738 20.5666 20.7738 20.2615C20.5498 20.2615 20.33 20.2615 20.1063 20.2615C19.95 20.2615 19.7976 20.2615 19.6415 20.2615C18.8957 20.2615 18.1468 20.2615 17.4013 20.2615C17.4013 20.4567 17.4049 20.6521 17.3977 20.8507C17.2523 20.9824 17.1102 21.1205 16.9718 21.2592C16.9751 21.4119 16.9751 21.561 16.9718 21.7137C16.3222 21.7137 15.6762 21.7137 15.0263 21.7137C15.0193 21.561 15.0406 21.4046 15.016 21.2522C14.8882 21.1063 14.7388 20.9785 14.6004 20.8403C14.5968 20.6449 14.6004 20.453 14.5968 20.2578C14.0325 20.2615 13.4679 20.2578 12.9072 20.2578C12.6941 20.2578 12.4776 20.2578 12.2648 20.2578C11.9203 20.2578 11.5761 20.2578 11.2282 20.2578C11.2246 20.7405 11.2282 21.2271 11.2246 21.7103C11.033 21.7103 10.8412 21.7103 10.653 21.7103C10.646 21.3834 10.6603 21.0568 10.646 20.7302C10.1348 20.4567 9.55623 20.3395 8.981 20.3219C8.82832 20.318 8.67591 20.3146 8.51987 20.318C8.09006 20.3219 7.66053 20.3893 7.25225 20.5204C7.08922 20.5775 6.91864 20.6379 6.77323 20.7371C6.73408 21.0568 6.76959 21.387 6.75561 21.7103C6.5635 21.7103 6.37194 21.7103 6.18374 21.7067C6.18374 21.3834 6.18374 21.0604 6.18374 20.7371C5.86104 20.5845 5.51316 20.4992 5.16529 20.4245C4.90941 20.375 4.65046 20.3252 4.3876 20.318H4.37697C4.32384 20.1902 4.28106 20.0624 4.24219 19.9346C5.56266 19.9312 6.88341 19.9346 8.20388 19.9312C8.35628 19.9312 8.50897 19.9312 8.66165 19.9312C9.46394 19.9312 10.2629 19.9276 11.0649 19.9312C11.2813 19.9522 11.6152 19.6826 11.6152 19.6826C11.6152 19.6826 11.6398 19.6932 11.6577 19.7145C11.6826 19.7145 11.7002 19.7464 11.7002 19.7464C11.7002 19.7464 11.5087 19.8672 11.4164 19.9312C11.5333 19.9239 11.672 19.9631 11.7749 19.8884C11.8174 19.8599 11.8993 19.8034 11.8993 19.8034L11.9735 19.8848L11.9488 19.9312C12.0305 19.9312 12.1155 19.9312 12.1974 19.9203L12.2469 19.8921C12.4069 19.9239 12.5274 19.9203 12.6874 19.9239C13.2729 19.4729 13.8552 19.0185 14.4371 18.5674C14.8596 18.2302 15.2998 17.9142 15.7117 17.5624C14.8062 18.191 13.3085 19.281 12.4033 19.917C12.3605 19.9203 12.2363 19.9382 12.2433 19.8921C13.1275 19.2671 14.8029 18.0914 15.6762 17.4595C15.2394 17.7187 14.8205 18.0062 14.3946 18.2833C14.0822 18.4891 12.2755 19.6684 11.9665 19.8848C11.9488 19.8635 11.8884 19.8387 11.8921 19.8034C12.4175 19.4765 14.4941 18.1024 15.012 17.7648C15.243 17.6052 15.488 17.4631 15.7151 17.2998C14.9519 17.7436 12.4458 19.2917 11.6896 19.7464C11.679 19.7251 11.6152 19.7036 11.601 19.6826C12.3462 19.2246 14.8918 17.6725 15.637 17.2178C15.6762 17.1966 15.7117 17.1611 15.7044 17.1116C15.7223 16.9125 15.7151 16.7173 15.7187 16.5185ZM14.3096 18.7984C13.8373 19.1781 13.3546 19.5369 12.8932 19.9276C13.0031 19.917 13.1418 19.9701 13.2338 19.8848C13.752 19.4337 14.2702 18.9793 14.7886 18.5285C15.094 18.2548 15.4133 17.9922 15.7117 17.7117C15.236 18.0596 14.7783 18.436 14.3096 18.7984ZM15.0087 18.4645C14.5828 18.8445 14.1566 19.2246 13.7344 19.6043C13.6208 19.7075 13.4894 19.7995 13.4007 19.9276C13.493 19.9276 13.582 19.9276 13.674 19.9276C14.37 19.2279 15.0657 18.5285 15.7542 17.8216C15.4916 18.0204 15.2573 18.2514 15.0087 18.4645ZM16.2797 17.8501C16.4357 18.0277 16.6063 18.191 16.7693 18.3616C17.2878 18.887 17.799 19.4161 18.3241 19.9346C18.4094 19.9346 18.4983 19.9382 18.5834 19.9239C18.5655 19.8775 18.5302 19.8496 18.4983 19.821C17.7598 19.1639 17.0322 18.4891 16.2797 17.8501ZM14.0786 19.7002C14.0112 19.7713 13.9332 19.8353 13.887 19.9239C13.976 19.9276 14.068 19.9276 14.1566 19.9312C14.7 19.2671 15.2503 18.6029 15.7825 17.9318C15.2042 18.507 14.6502 19.1144 14.0786 19.7002ZM16.2086 17.9354C16.7483 18.6029 17.2911 19.2671 17.8345 19.9312C17.9304 19.9312 18.0227 19.9312 18.1183 19.9276C17.8949 19.6684 17.6463 19.4267 17.4119 19.1709C17.0037 18.7665 16.6309 18.3261 16.2086 17.9354ZM14.4407 19.8138C14.4195 19.8496 14.3979 19.8848 14.384 19.9276C14.4726 19.9312 14.5615 19.9312 14.6538 19.9312C14.9732 19.4304 15.2822 18.9225 15.5982 18.4217C15.6723 18.2939 15.7612 18.1767 15.8143 18.0383C15.3566 18.6312 14.8985 19.2209 14.4407 19.8138ZM16.1731 18.0347C16.205 18.0984 16.2369 18.1588 16.2727 18.2195C16.6239 18.7911 16.9827 19.3591 17.3373 19.9312C17.4332 19.9346 17.5291 19.9346 17.6287 19.9346C17.5573 19.8034 17.4547 19.6966 17.3694 19.5758C16.9681 19.0612 16.5778 18.5428 16.1731 18.0347ZM15.4419 18.8691C15.2503 19.2246 15.0302 19.5654 14.8563 19.9312C14.9519 19.9312 15.0478 19.9312 15.1471 19.9312C15.3566 19.4161 15.566 18.901 15.7755 18.3865C15.804 18.3152 15.8286 18.2444 15.8465 18.1697C15.7008 18.3935 15.5803 18.6348 15.4419 18.8691ZM16.1412 18.1697C16.3577 18.7629 16.6133 19.3414 16.844 19.9276C16.9399 19.9276 17.0392 19.9276 17.1351 19.9276C17.075 19.7855 16.9894 19.6541 16.9186 19.5193C16.6986 19.1286 16.4785 18.7343 16.2545 18.3403C16.2193 18.2833 16.1907 18.2195 16.1412 18.1697ZM15.9139 18.2302C15.7685 18.6667 15.6191 19.1001 15.4704 19.5336C15.4276 19.6647 15.3745 19.7925 15.3496 19.9276C15.7825 19.9276 16.2156 19.9276 16.6491 19.9276C16.4606 19.3591 16.2654 18.7911 16.0736 18.2262C16.0241 18.2262 15.9707 18.2302 15.9139 18.2302ZM15.0834 20.144C15.0797 20.2506 15.0834 20.3571 15.0903 20.4639C15.2785 20.46 15.4665 20.46 15.6547 20.4639C15.6619 20.3571 15.6619 20.2506 15.6619 20.1479C15.4704 20.1407 15.2749 20.144 15.0834 20.144ZM16.3328 20.144C16.3328 20.2436 16.3328 20.3431 16.3292 20.4424C16.5174 20.4816 16.7128 20.4497 16.901 20.4639C16.9114 20.3571 16.9114 20.2506 16.908 20.144C16.7162 20.144 16.5246 20.1407 16.3328 20.144Z" fill="#EC7E24"/>
<path d="M13.4569 18.6667C14.213 18.2086 14.9583 17.7402 15.7217 17.2959C15.4944 17.4595 12.651 19.3096 12.3526 19.5084C12.335 19.4835 12.2888 19.4195 12.2676 19.3949C12.6582 19.1429 13.0665 18.9153 13.4569 18.6667Z" fill="#0154A5"/>
<path d="M16.3066 17.321C16.5552 17.4488 16.7823 17.6085 17.0276 17.7402C17.1126 17.7897 17.1942 17.8501 17.2795 17.8999C17.6307 18.1127 17.9786 18.3331 18.3299 18.5428C18.4188 18.5923 18.4792 18.6809 18.5181 18.7732C18.1137 18.5034 17.7021 18.2405 17.2938 17.9707C16.9635 17.7578 16.6296 17.5448 16.3066 17.321Z" fill="#0A4DA1"/>
<path d="M10.1946 24.1499C10.6599 24.1465 11.1213 24.1499 11.5864 24.1499C11.6252 24.2385 11.6647 24.3275 11.6929 24.4198C11.753 24.6684 11.8419 24.9097 11.9342 25.1477C11.9628 25.1477 12.0159 25.1513 12.0444 25.1513C12.2041 25.6415 12.3853 26.1281 12.5483 26.618C12.5768 26.703 12.6054 26.7883 12.6373 26.8703C12.8255 27.403 13.0206 27.9354 13.1946 28.4754C12.8749 28.4964 12.5553 28.4824 12.2326 28.4857C12.069 28.4824 11.9024 28.5 11.7388 28.4715C11.6647 28.3722 11.6574 28.2408 11.6185 28.1272C11.4513 28.12 11.2776 28.0881 11.1177 28.1342C11.0682 28.2408 11.043 28.358 11.0078 28.4679C10.7768 28.4964 10.5464 28.4788 10.312 28.4824C10.0601 28.4788 9.8042 28.493 9.55224 28.4715C9.54861 28.4469 9.53826 28.3971 9.53099 28.3722C9.1901 28.493 8.82461 28.4824 8.46975 28.4788C8.15375 28.4824 7.83748 28.4754 7.51812 28.4857C7.50386 28.4857 7.47198 28.4857 7.45772 28.4857V28.4502C7.45772 28.0383 7.45772 27.6264 7.45772 27.2181C7.39732 27.2075 7.33356 27.2005 7.27344 27.1932C7.28043 26.8949 7.26617 26.5931 7.28043 26.2948C7.3372 26.2948 7.39732 26.2911 7.45437 26.2911C7.45437 25.9147 7.45073 25.535 7.45772 25.1583C7.52176 25.1549 7.58943 25.1513 7.65319 25.1477C8.74296 25.1373 9.83636 25.1653 10.9261 25.144C10.8372 24.9558 10.6845 24.8104 10.564 24.6435C10.4398 24.4802 10.2944 24.3308 10.1946 24.1499ZM10.7027 24.4055C10.7416 24.4586 10.7841 24.512 10.8232 24.5652C10.965 24.75 11.1177 24.9309 11.2527 25.1231H11.2385C11.3769 25.1158 11.5153 25.1191 11.6504 25.1191C11.6289 25.0627 11.4513 24.5406 11.4018 24.3985C11.3557 24.3985 11.3095 24.4021 11.2634 24.4055C11.1428 24.4021 11.0254 24.4021 10.9085 24.4055C10.8408 24.4055 10.7734 24.4055 10.7027 24.4055ZM9.17249 25.1795C9.45632 25.2721 9.74771 25.3786 9.95688 25.5987C10.1238 25.762 10.2161 25.9821 10.319 26.1882C10.397 26.0462 10.4326 25.8862 10.4896 25.7374C10.5534 25.5456 10.6314 25.3574 10.6845 25.1619C10.3157 25.1477 9.94262 25.1583 9.57014 25.1549C9.43507 25.1549 9.3 25.1407 9.17249 25.1795ZM7.71359 25.4072C7.71359 25.7869 7.71359 26.1633 7.71359 26.5434C7.65683 26.554 7.57853 26.5185 7.53602 26.5719C7.52903 26.689 7.53602 26.8099 7.53239 26.9307C7.59279 26.941 7.65319 26.9519 7.71359 26.9586C7.70996 27.3745 7.71695 27.7897 7.70996 28.2055C8.10397 28.2232 8.49799 28.2089 8.89201 28.2125C9.22925 28.2232 9.58412 28.1236 9.82237 27.8753C10.0671 27.6334 10.1593 27.2785 10.1627 26.9446C10.1736 26.5361 10.0601 26.1099 9.79022 25.7978C9.55951 25.5559 9.22198 25.4354 8.89201 25.4033C8.50163 25.4033 8.10761 25.4033 7.71359 25.4072ZM9.89312 28.2089C10.1985 28.2159 10.5036 28.2125 10.8126 28.2125C10.8481 28.0954 10.887 27.9779 10.9189 27.8571C11.2169 27.8501 11.5153 27.8538 11.8134 27.8571C11.8456 27.9779 11.8808 28.0954 11.9166 28.2125C12.2217 28.2125 12.5271 28.2125 12.8324 28.2125C12.5092 27.2746 12.1828 26.3409 11.8526 25.4072C11.5296 25.4072 11.203 25.4072 10.88 25.4072C10.5534 26.3409 10.2231 27.2746 9.89312 28.2089Z" fill="#0A4DA1"/>
<path d="M18.5431 24.2246C18.5962 24.1854 18.653 24.139 18.7276 24.1465C18.9866 24.1465 19.2458 24.1465 19.5047 24.1499C19.4622 24.4091 19.4164 24.6896 19.2103 24.8744C19.1001 24.9276 18.9938 24.9952 18.8697 25.0129C18.7452 25.0271 18.6211 25.0165 18.5003 25.0165C18.486 25.0626 18.4717 25.1051 18.4541 25.1513C18.408 25.2223 18.3549 25.2897 18.3017 25.3535C18.4295 25.7727 18.5713 26.1918 18.717 26.6074C18.731 26.6535 18.7419 26.696 18.7522 26.7458C18.7665 26.7492 18.7738 25.6449 18.7665 25.1513C19.189 25.1477 19.6116 25.1477 20.0338 25.1513C20.1759 25.4211 20.3465 25.6804 20.5238 25.9256C20.5347 25.6661 20.5271 25.4072 20.5271 25.1477C20.9994 25.144 21.4715 25.144 21.9438 25.1477C21.9368 25.304 21.9368 25.4603 21.9471 25.62C22.0752 25.5241 22.1851 25.4072 22.3235 25.3255C22.462 25.2399 22.6146 25.1834 22.771 25.1407C23.0405 25.0945 23.3174 25.0945 23.5872 25.144C24.031 25.2508 24.4606 25.5313 24.6345 25.9718C24.7055 26.1351 24.7198 26.3124 24.7159 26.4863C24.7125 27.1007 24.7159 27.7117 24.7159 28.3261C24.7125 28.3686 24.7089 28.4147 24.7089 28.4575C24.6451 28.4611 24.5847 28.4611 24.5243 28.4678C24.2335 28.493 23.9421 28.4824 23.6546 28.4645C23.2573 28.571 22.8132 28.571 22.4374 28.3865C22.2525 28.3012 22.1104 28.1591 21.9544 28.035C21.9471 28.177 21.9471 28.3224 21.9471 28.4645C21.7167 28.4964 21.4857 28.4788 21.255 28.4824C21.0775 28.4788 20.9002 28.493 20.7226 28.4788C20.6622 28.4824 20.6303 28.4326 20.5984 28.3898C20.4564 28.1697 20.3213 27.9424 20.1686 27.726C20.1049 27.9673 20.1544 28.2195 20.1404 28.4678C19.7676 28.5 19.3915 28.4754 19.0184 28.4824C18.6563 28.4754 18.2908 28.5 17.9323 28.4678C17.8968 28.3546 17.8616 28.2408 17.8258 28.1272C17.6734 28.113 17.5137 28.0881 17.361 28.1272C17.3073 28.2335 17.2897 28.3546 17.2617 28.4678C16.6653 28.4964 16.0654 28.4715 15.469 28.4824C15.3551 28.4788 15.2346 28.4964 15.1281 28.4575C14.9435 28.2232 14.8157 27.9424 14.6239 27.7117C14.6029 27.9637 14.6166 28.2195 14.6096 28.4715C14.3291 28.4894 14.0486 28.4754 13.7684 28.4824C13.6051 28.4788 13.4346 28.4964 13.2749 28.4678C13.2466 28.4147 13.2573 28.351 13.2539 28.2939C13.2606 27.8182 13.2503 27.3423 13.2606 26.8663C13.2606 26.7813 13.2606 26.6997 13.2606 26.6144C13.2573 26.1242 13.2539 25.6376 13.2606 25.1477C13.6798 25.144 14.0951 25.144 14.514 25.1477C14.6594 25.4142 14.8333 25.6661 15.0003 25.9217C15.0431 25.6661 15.0179 25.4072 15.0145 25.1477C15.4902 25.144 15.9622 25.144 16.4343 25.1477C16.4167 25.439 16.4273 25.7301 16.4273 26.0213C16.4309 26.2131 16.4133 26.7243 16.4133 26.7243C16.4133 26.7243 16.7469 25.8191 16.8568 25.4175C16.8107 25.3182 16.7254 25.2436 16.6723 25.1513C16.6437 25.059 16.6225 24.9631 16.6049 24.8672C16.6012 24.7819 16.6049 24.6969 16.6082 24.6079C16.8426 24.6149 17.0769 24.5937 17.3112 24.6149C17.3501 24.6507 17.382 24.693 17.4141 24.7324C17.4709 24.5087 17.613 24.3062 17.8294 24.2173C18.0459 24.1038 18.3051 24.1745 18.5431 24.2246ZM18.8235 24.4055C18.8126 24.4231 18.7914 24.4586 18.7808 24.4801C18.5145 24.5831 18.2483 24.3417 17.9785 24.4374C17.8188 24.4838 17.6661 24.6222 17.6697 24.7961C17.7726 24.7928 17.8758 24.7928 17.9785 24.7889C18.0531 24.7391 18.1348 24.679 18.2304 24.6969C18.4541 24.7324 18.6815 24.8104 18.9049 24.743C19.0542 24.6969 19.1572 24.5584 19.1854 24.4055C19.0646 24.4055 18.9443 24.4055 18.8235 24.4055ZM16.8495 24.8672C16.8604 25.0165 16.9418 25.1549 17.0735 25.2293C17.2754 25.3574 17.524 25.3501 17.7514 25.3255C17.9821 25.2794 18.2447 25.1264 18.2626 24.8672C18.156 24.8672 18.0498 24.8672 17.9466 24.8708C17.7726 25.1407 17.3255 25.1264 17.1476 24.8708C17.0484 24.8672 16.9491 24.8672 16.8495 24.8672ZM22.3803 25.5954C21.9116 25.929 21.7589 26.5576 21.8409 27.1046C21.8974 27.4595 22.0643 27.8146 22.3591 28.035C22.6963 28.2872 23.1577 28.3367 23.5517 28.2125C23.6798 28.177 23.7612 28.0596 23.8856 28.0173C23.8999 28.0845 23.9102 28.1485 23.9245 28.2159C24.1018 28.2159 24.283 28.2195 24.4606 28.2125C24.4569 27.7047 24.4606 27.1932 24.4606 26.6854C24.0738 26.6821 23.6832 26.6821 23.2961 26.6854C23.2961 26.8736 23.2961 27.0618 23.2961 27.2466C23.4273 27.2466 23.5624 27.2466 23.6935 27.25C23.6264 27.5909 23.1328 27.7008 22.8985 27.4631C22.7601 27.3174 22.7106 27.1079 22.6927 26.9125C22.682 26.689 22.7139 26.4544 22.8347 26.2629C22.9306 26.1065 23.1222 26 23.3068 26.0534C23.4664 26.0956 23.5733 26.238 23.6228 26.387C23.889 26.387 24.1552 26.3907 24.4217 26.387C24.432 26.38 24.4497 26.3621 24.4606 26.3518C24.4427 25.929 24.1057 25.5954 23.7293 25.4533C23.2928 25.2897 22.7637 25.3182 22.3803 25.5954ZM13.4986 25.4072C13.495 26.3409 13.5022 27.2713 13.495 28.2055C13.7791 28.2195 14.0596 28.2125 14.3434 28.2089C14.34 27.7402 14.34 27.2713 14.3434 26.8026C14.6594 27.2643 14.9505 27.7436 15.2559 28.2125C15.554 28.2125 15.8521 28.2159 16.1538 28.2125C16.1504 27.2785 16.1538 26.3409 16.1538 25.4072C15.8591 25.4072 15.561 25.4072 15.2665 25.4072C15.2592 25.8792 15.2701 26.3518 15.2592 26.8241C15.1636 26.7173 15.0995 26.5861 15.0179 26.4687C14.7908 26.1138 14.5707 25.755 14.3364 25.4032C14.0596 25.4105 13.7791 25.3999 13.4986 25.4072ZM16.2142 28.2089C16.4947 28.2159 16.7752 28.2125 17.052 28.2125C17.0839 28.0914 17.1124 27.9746 17.1476 27.8538C17.4318 27.8538 17.7122 27.8571 17.9961 27.8501C18.0422 27.9673 18.0777 28.0845 18.1099 28.2055C18.3974 28.2125 18.6815 28.2089 18.969 28.2055C18.653 27.2713 18.3549 26.3303 18.0282 25.3963C17.7265 25.4032 17.4248 25.3963 17.123 25.4032C16.8249 26.3445 16.5196 27.2785 16.2142 28.2089ZM19.0294 28.2125C19.3132 28.2125 19.5937 28.2195 19.8778 28.2089C19.8742 27.7402 19.8742 27.2713 19.8778 26.8026C20.1901 27.2679 20.4846 27.7469 20.7936 28.2159C21.0917 28.2125 21.3898 28.2232 21.6882 28.2089C21.6809 27.2746 21.6882 26.3409 21.6846 25.4072C21.3865 25.4072 21.0881 25.4032 20.7936 25.4072C20.7936 25.8758 20.8042 26.3445 20.7866 26.8132C20.7011 26.7282 20.6446 26.6144 20.5769 26.5148C20.3392 26.1457 20.1085 25.7727 19.8669 25.4032C19.5864 25.4032 19.3062 25.4032 19.0294 25.4032C19.0257 26.3409 19.0327 27.2746 19.0294 28.2125ZM23.0724 26.4225C23.1541 26.4259 23.2396 26.4298 23.321 26.4192C23.3459 26.2559 23.0654 26.2662 23.0724 26.4225ZM22.9449 26.8381C22.9552 26.9376 22.9376 27.0688 23.0263 27.1365C23.0405 26.9267 23.0442 26.7139 23.0263 26.5042C22.9413 26.5895 22.9516 26.7243 22.9449 26.8381Z" fill="#0A4DA1"/>
<path d="M8.55414 26.082C8.7566 26.078 8.99429 26.0744 9.14698 26.231C9.28904 26.3694 9.31392 26.5822 9.31392 26.7704C9.31756 26.9908 9.29267 27.2324 9.13635 27.4063C8.9873 27.5587 8.7566 27.5587 8.55749 27.5696C8.55078 27.3672 8.55749 27.1647 8.55078 26.9625C8.67858 26.9234 8.80973 26.9483 8.94116 26.934C8.93753 26.8062 8.93753 26.6784 8.93753 26.5504C8.80973 26.547 8.68193 26.547 8.55078 26.5434C8.55749 26.387 8.55749 26.2344 8.55414 26.082ZM8.83126 27.2075C8.77086 27.2537 8.85587 27.3247 8.90201 27.2746C8.97668 27.2285 8.88076 27.1507 8.83126 27.2075Z" fill="#0A4DA1"/>
<path d="M11.3736 26.4049C11.4377 26.5148 11.4553 26.6426 11.4944 26.7601C11.5406 26.934 11.6046 27.1007 11.6292 27.2785C11.4553 27.2785 11.2814 27.2785 11.1074 27.2785C11.1854 26.9838 11.278 26.696 11.3736 26.4049Z" fill="#0A4DA1"/>
<path d="M17.5812 26.4049C17.6911 26.6854 17.7618 26.9838 17.8365 27.2746C17.6698 27.2785 17.5065 27.2785 17.3398 27.2746C17.3893 26.9802 17.4956 26.6924 17.5812 26.4049Z" fill="#0A4DA1"/>
<path d="M16.3066 17.4595C16.6369 17.644 16.9456 17.868 17.2686 18.0666C17.723 18.3756 18.1844 18.674 18.6425 18.9723C18.7667 19.0504 18.8377 19.1782 18.9121 19.299C18.4224 18.9472 17.9291 18.6029 17.4356 18.2587C17.0594 17.9922 16.6797 17.7293 16.3066 17.4595Z" fill="#0154A6"/>
<path d="M19.8329 19.9312C19.7758 19.8495 19.7227 19.764 19.7051 19.6647C19.8256 19.75 19.957 19.8244 20.0815 19.9097L20.0244 19.9203C19.957 19.9276 19.8966 19.9312 19.8329 19.9312Z" fill="#135FA4"/>
<path d="M18.8238 24.4055C18.9446 24.4055 19.0648 24.4055 19.1856 24.4055C19.1574 24.5585 19.0581 24.693 18.9052 24.743C18.6817 24.8104 18.4507 24.7324 18.2307 24.6969C18.135 24.679 18.0534 24.7391 17.9787 24.7889C17.8761 24.7928 17.7729 24.7928 17.67 24.7961C17.6664 24.6186 17.819 24.4838 17.9787 24.4374C18.2449 24.3417 18.5148 24.5831 18.781 24.4802C18.7953 24.4625 18.8129 24.4231 18.8238 24.4055Z" fill="#F3801F"/>
<path d="M10.7012 24.4055C10.7012 24.4055 11.2831 24.3949 11.4036 24.4021C11.4498 24.4838 11.6522 25.1231 11.6522 25.1231H11.2512L10.7012 24.4055Z" fill="#F3801F"/>
<path d="M16.8496 24.8672C16.9492 24.8672 17.0484 24.8672 17.1444 24.8672C17.3216 25.1264 17.7691 25.1407 17.943 24.8672C18.0498 24.8635 18.1561 24.8635 18.259 24.8635C18.2414 25.1264 17.9822 25.2754 17.7478 25.3216C17.5208 25.3467 17.2685 25.3535 17.0697 25.2259C16.9419 25.1583 16.8605 25.0165 16.8496 24.8672Z" fill="#F3801F"/>
<path d="M22.3811 25.5954C22.7645 25.3182 23.2936 25.2897 23.7265 25.4533C24.1026 25.5954 24.4401 25.929 24.4577 26.3518C24.4471 26.3585 24.4292 26.3764 24.4186 26.387C24.1526 26.3907 23.8864 26.387 23.6202 26.387C23.5665 26.238 23.4639 26.0923 23.3042 26.0534C23.1196 26 22.9278 26.1065 22.8322 26.2629C22.7114 26.4544 22.6792 26.689 22.6901 26.9125C22.7077 27.1079 22.7539 27.3174 22.8959 27.4631C23.1263 27.7047 23.6235 27.5909 23.6909 27.25C23.5598 27.2466 23.4247 27.25 23.2936 27.2466C23.2936 27.0584 23.2936 26.8702 23.2936 26.6854C23.6806 26.6784 24.0673 26.682 24.4577 26.6854C24.4577 27.1932 24.4544 27.7047 24.4577 28.2125C24.2804 28.2231 24.0992 28.2159 23.9216 28.2159C23.9077 28.1485 23.8934 28.0844 23.8825 28.0173C23.7583 28.0596 23.6767 28.177 23.5489 28.2125C23.1549 28.3367 22.6935 28.2905 22.3562 28.035C22.0617 27.8146 21.8982 27.4594 21.8378 27.1046C21.7597 26.561 21.9124 25.929 22.3811 25.5954Z" fill="#F3801F"/>
<path d="M7.71246 25.4072C8.10647 25.4072 8.49685 25.4033 8.89087 25.4072C9.22085 25.439 9.55474 25.5596 9.78908 25.8012C10.0589 26.1138 10.1725 26.54 10.1616 26.9483C10.1582 27.2822 10.0693 27.637 9.82124 27.8786C9.58298 28.1272 9.22812 28.2265 8.89087 28.2159C8.49685 28.2089 8.10284 28.2265 7.70882 28.2089C7.71581 27.7934 7.70882 27.3778 7.71246 26.9625C7.65206 26.9519 7.59165 26.941 7.53125 26.934C7.53489 26.8132 7.52789 26.696 7.53489 26.5752C7.57739 26.5221 7.65206 26.554 7.71246 26.547C7.71246 26.1633 7.71246 25.7836 7.71246 25.4072ZM8.55362 26.0819C8.55362 26.2343 8.55362 26.387 8.55362 26.54C8.68142 26.5434 8.80921 26.5434 8.94065 26.547C8.94065 26.6745 8.94065 26.8026 8.94428 26.9307C8.81285 26.9446 8.68142 26.9234 8.55362 26.9586C8.56089 27.1611 8.55362 27.3635 8.56089 27.566C8.75944 27.5554 8.99042 27.5554 9.13919 27.403C9.29216 27.2324 9.3204 26.9871 9.31704 26.7671C9.31704 26.5789 9.29551 26.3658 9.1501 26.2274C8.99378 26.0744 8.75944 26.078 8.55362 26.0819Z" fill="#F3801F"/>
<path d="M9.89258 28.2089C10.2226 27.2746 10.5528 26.3409 10.8794 25.4072C11.2024 25.4033 11.529 25.4072 11.852 25.4072C12.1787 26.3409 12.5053 27.2785 12.8319 28.2125C12.5265 28.2159 12.2212 28.2125 11.9161 28.2125C11.8803 28.0954 11.845 27.9746 11.8129 27.8571C11.5148 27.8538 11.2164 27.8538 10.9183 27.8571C10.8864 27.9746 10.8476 28.0915 10.812 28.2125C10.503 28.2125 10.1979 28.2195 9.89258 28.2089ZM11.3727 26.4049C11.2771 26.696 11.1812 26.9838 11.1065 27.2785C11.2804 27.2746 11.4544 27.2785 11.6283 27.2785C11.6037 27.1007 11.5397 26.934 11.4935 26.7601C11.4544 26.6426 11.4368 26.5148 11.3727 26.4049Z" fill="#F3801F"/>
<path d="M13.4997 25.4072C13.7802 25.3999 14.0607 25.4105 14.3375 25.4033C14.5719 25.755 14.792 26.1138 15.019 26.4687C15.0973 26.5861 15.1647 26.7173 15.2604 26.8241C15.2713 26.3518 15.2604 25.8792 15.2676 25.4072C15.5621 25.4072 15.8602 25.4072 16.1549 25.4072C16.1549 26.3409 16.1516 27.2785 16.1549 28.2125C15.8568 28.2159 15.5587 28.2159 15.257 28.2125C14.9516 27.7436 14.6605 27.2643 14.3445 26.8026C14.3412 27.2713 14.3412 27.7402 14.3445 28.2089C14.0607 28.2159 13.7766 28.2195 13.4961 28.2056C13.5034 27.2746 13.4997 26.3409 13.4997 25.4072Z" fill="#F3801F"/>
<path d="M16.2148 28.2089C16.5202 27.2746 16.8256 26.3409 17.1273 25.4072C17.4288 25.3999 17.7305 25.4105 18.0325 25.3999C18.3589 26.3303 18.657 27.2713 18.973 28.2089C18.6855 28.2125 18.4016 28.2159 18.1142 28.2089C18.0823 28.0881 18.0465 27.9673 18.0004 27.8538C17.7162 27.861 17.436 27.8571 17.1522 27.8571C17.1164 27.9746 17.0845 28.0954 17.056 28.2159C16.7722 28.2125 16.492 28.2159 16.2148 28.2089ZM17.5817 26.4049C17.4962 26.6924 17.3899 26.9802 17.3404 27.2785C17.5071 27.2822 17.6704 27.2822 17.837 27.2785C17.7663 26.9838 17.6916 26.6854 17.5817 26.4049Z" fill="#F3801F"/>
<path d="M19.0293 28.2125C19.0327 27.2785 19.0257 26.3409 19.0327 25.4072C19.3131 25.4072 19.5936 25.4072 19.8705 25.4072C20.1084 25.7763 20.3425 26.1491 20.5808 26.5185C20.6479 26.618 20.701 26.7316 20.7899 26.8166C20.8042 26.3482 20.7936 25.8792 20.7969 25.4105C21.0953 25.4072 21.3934 25.4072 21.6881 25.4105C21.6881 26.3445 21.6845 27.2785 21.6915 28.2125C21.3934 28.2265 21.0953 28.2159 20.7969 28.2195C20.4882 27.7508 20.1971 27.2713 19.8811 26.8062C19.8777 27.2746 19.8777 27.7436 19.8811 28.2125C19.5936 28.2195 19.3131 28.2125 19.0293 28.2125Z" fill="#F3801F"/>
<path d="M23.0723 26.4226C23.0689 26.2662 23.3458 26.2559 23.3209 26.4192C23.2395 26.4259 23.154 26.4259 23.0723 26.4226Z" fill="#0188CF"/>
<path d="M22.9453 26.8381C22.952 26.7243 22.9417 26.5895 23.0267 26.5042C23.0446 26.7139 23.0446 26.9268 23.0267 27.1365C22.938 27.0688 22.9557 26.9377 22.9453 26.8381Z" fill="#0185CD"/>
<path d="M8.83147 27.2075C8.87761 27.1507 8.97325 27.2324 8.90222 27.2746C8.85608 27.3247 8.77107 27.2536 8.83147 27.2075Z" fill="#0A4DA1"/>
</g>
<path d="M44.9515 10.9209C45.7762 10.9209 47.7349 11.1271 47.7349 13.6789V18.3211C47.7349 20.873 45.7762 21.0808 44.9515 21.0808H43.3258V10.9209H44.9515ZM45.0276 24.1227C51.037 24.1227 51.0624 18.965 51.0624 18.965V13.035C51.0624 13.035 51.037 7.87729 45.0276 7.87729H40.4647C40.2586 7.87729 40 8.03276 40 8.34202V23.658C40 23.9672 40.2586 24.1227 40.4647 24.1227H45.0276Z" fill="white"/>
<path d="M57.0971 7.87729C56.9416 7.87729 56.7355 7.98038 56.6577 8.18655L51.9141 23.658C51.9141 23.9672 52.1726 24.1227 52.3788 24.1227H54.7244C54.9306 24.1227 55.1368 23.9672 55.2399 23.658L55.833 21.647H61.7901L62.4086 23.658C62.5117 23.9672 62.7179 24.1227 62.924 24.1227H65.2714C65.4775 24.1227 65.7344 23.9672 65.7344 23.658L60.9907 8.18655C60.913 7.98038 60.7068 7.87729 60.5514 7.87729H57.0971ZM58.8242 11.901L60.8623 18.6051H56.7625L58.8242 11.901Z" fill="white"/>
<path d="M76.1013 23.658C76.255 23.9165 76.5389 24.1227 76.7451 24.1227H79.0924C79.2986 24.1227 79.5555 23.9672 79.5555 23.658V8.34202C79.5555 8.03276 79.2986 7.87729 79.0924 7.87729H76.6944C76.4882 7.87729 76.2297 8.03276 76.2297 8.34202V17.728L70.2997 8.34202C70.1189 8.08346 69.8603 7.87729 69.6541 7.87729H67.3085C67.1023 7.87729 66.8438 8.03276 66.8438 8.34202V23.658C66.8438 23.9672 67.1023 24.1227 67.3085 24.1227H69.7065C69.9127 24.1227 70.1696 23.9672 70.1696 23.658V14.4782L76.1013 23.658Z" fill="white"/>
<path d="M85.8491 7.87729C85.6936 7.87729 85.4874 7.98038 85.4097 8.18655L80.666 23.658C80.666 23.9672 80.9246 24.1227 81.1307 24.1227H83.4764C83.6826 24.1227 83.8887 23.9672 83.9918 23.658L84.585 21.647H90.542L91.1606 23.658C91.2636 23.9672 91.4698 24.1227 91.676 24.1227H94.0233C94.2295 24.1227 94.4864 23.9672 94.4864 23.658L89.7427 8.18655C89.665 7.98038 89.4588 7.87729 89.3033 7.87729H85.8491ZM87.5762 11.901L89.6143 18.6051H85.5145L87.5762 11.901Z" fill="white"/>
<path d="M104.851 23.658C105.005 23.9165 105.289 24.1227 105.495 24.1227H107.842C108.049 24.1227 108.305 23.9672 108.305 23.658V8.34202C108.305 8.03276 108.049 7.87729 107.842 7.87729H105.444C105.238 7.87729 104.98 8.03276 104.98 8.34202V17.728L99.0497 8.34202C98.8689 8.08346 98.6103 7.87729 98.4041 7.87729H96.0585C95.8523 7.87729 95.5938 8.03276 95.5938 8.34202V23.658C95.5938 23.9672 95.8523 24.1227 96.0585 24.1227H98.4565C98.6627 24.1227 98.9196 23.9672 98.9196 23.658V14.4782L104.851 23.658Z" fill="white"/>
<path d="M121.56 15.046C121.56 14.7368 121.302 14.5813 121.096 14.5813H117.383C117.074 14.5813 116.918 14.8399 116.918 15.046V16.8002C116.918 17.0064 117.074 17.2632 117.383 17.2632H118.748V21.0808C118.027 21.2093 117.461 21.287 116.893 21.287C115.294 21.287 113.359 20.5907 113.359 18.1403V13.8597C113.359 11.411 115.294 10.7147 116.893 10.7147C117.77 10.7147 118.851 10.8685 119.909 11.1524C120.038 11.1524 120.193 11.1017 120.271 10.8955L120.631 8.65128C120.631 8.57354 120.58 8.36737 120.374 8.28963C119.188 7.87729 117.589 7.67111 116.35 7.67111C110.833 7.67111 110.059 11.7709 110.059 13.5504V18.4496C110.059 20.2291 110.833 24.3289 116.35 24.3289C117.589 24.3289 120.09 24.045 121.457 23.3758C121.508 23.3487 121.56 23.298 121.56 23.2203V15.046Z" fill="white"/>
<path d="M123.443 18.4496C123.443 20.2291 124.216 24.3289 129.735 24.3289C130.972 24.3289 132.571 24.1227 133.757 23.7104C133.963 23.6326 134.016 23.4265 134.016 23.3487L133.654 21.1062C133.576 20.9 133.422 20.8476 133.292 20.8476C132.236 21.1315 131.153 21.287 130.276 21.287C128.677 21.287 126.744 20.5907 126.744 18.1403V13.8597C126.744 11.411 128.677 10.7147 130.276 10.7147C131.153 10.7147 132.236 10.8685 133.292 11.1524C133.422 11.1524 133.576 11.1017 133.654 10.8955L134.016 8.65128C134.016 8.57354 133.963 8.36737 133.757 8.28963C132.571 7.87729 130.972 7.67111 129.735 7.67111C124.216 7.67111 123.443 11.7709 123.443 13.5504V18.4496Z" fill="white"/>
<path d="M147.935 8.34202C147.935 8.03276 147.677 7.87729 147.47 7.87729H145.072C144.866 7.87729 144.608 8.03276 144.608 8.34202V15.433H139.218V8.34202C139.218 8.03276 138.962 7.87729 138.755 7.87729H136.357C136.151 7.87729 135.893 8.03276 135.893 8.34202V23.658C135.893 23.9672 136.151 24.1227 136.357 24.1227H138.755C138.962 24.1227 139.218 23.9672 139.218 23.658V18.4749H144.608V23.658C144.608 23.9672 144.866 24.1227 145.072 24.1227H147.47C147.677 24.1227 147.935 23.9672 147.935 23.658V8.34202Z" fill="white"/>
<path d="M154.23 7.87729C154.074 7.87729 153.868 7.98038 153.791 8.18655L149.047 23.658C149.047 23.9672 149.305 24.1227 149.512 24.1227H151.857C152.063 24.1227 152.27 23.9672 152.373 23.658L152.966 21.647H158.923L159.541 23.658C159.644 23.9672 159.851 24.1227 160.057 24.1227H162.404C162.61 24.1227 162.867 23.9672 162.867 23.658L158.124 8.18655C158.046 7.98038 157.84 7.87729 157.684 7.87729H154.23ZM155.957 11.901L157.995 18.6051H153.895L155.957 11.901Z" fill="white"/>
<path d="M167.298 8.34202C167.298 8.03276 167.042 7.87729 166.835 7.87729H164.437C164.231 7.87729 163.973 8.03276 163.973 8.34202V23.658C163.973 23.9672 164.231 24.1227 164.437 24.1227H166.835C167.042 24.1227 167.298 23.9672 167.298 23.658V8.34202Z" fill="white"/>
<path d="M178.574 23.658C178.728 23.9165 179.012 24.1227 179.218 24.1227H181.565C181.771 24.1227 182.028 23.9672 182.028 23.658V8.34202C182.028 8.03276 181.771 7.87729 181.565 7.87729H179.167C178.961 7.87729 178.702 8.03276 178.702 8.34202V17.728L172.772 8.34202C172.592 8.08346 172.333 7.87729 172.127 7.87729H169.781C169.575 7.87729 169.316 8.03276 169.316 8.34202V23.658C169.316 23.9672 169.575 24.1227 169.781 24.1227H172.179C172.385 24.1227 172.642 23.9672 172.642 23.658V14.4782L178.574 23.658Z" fill="white"/>
<path fill-rule="evenodd" clip-rule="evenodd" d="M190.855 11.4183H186.027V20.2425H190.991V19.7122H186.642V15.8219H190.181V15.3043H186.642V11.9613H190.855V11.4183ZM192.671 11.6091L195.136 15.8515L192.501 20.4206H193.133L194.669 17.7097C194.907 17.2812 195.14 16.8484 195.424 16.3139H195.479C195.634 16.5866 195.776 16.8287 195.908 17.0554C196.042 17.2838 196.166 17.4969 196.286 17.7097L197.826 20.4206H198.496L195.836 15.9024L198.301 11.6091H197.669L196.218 14.2097C196.047 14.5055 195.914 14.7533 195.752 15.0571C195.693 15.1672 195.63 15.2848 195.56 15.4145H195.509C195.406 15.2401 195.315 15.0906 195.231 14.951C195.079 14.7005 194.947 14.4822 194.796 14.2097L193.337 11.6091H192.671ZM200.015 11.5965H202.238C204.236 11.5965 205.436 12.2455 205.436 14.0571C205.436 15.788 204.257 16.628 202.293 16.628H200.617V20.4207H199.998L200.015 11.5965ZM202.136 16.1062C203.939 16.1062 204.804 15.508 204.804 14.0571C204.804 12.6062 203.909 12.1395 202.085 12.1395H200.617V16.1274L202.136 16.1062ZM207.982 11.5965H207.367L207.405 20.4207H212.072V19.8904H207.982V11.5965ZM212.789 15.983C212.789 13.1872 214.299 11.4351 216.42 11.4351C218.542 11.4351 220.056 13.1872 220.056 15.983C220.056 18.7787 218.542 20.5817 216.42 20.5817C214.299 20.5817 212.789 18.7745 212.789 15.983ZM219.411 15.983C219.411 13.5351 218.215 11.9951 216.42 11.9951C214.626 11.9951 213.451 13.5351 213.451 15.983C213.451 18.4308 214.647 20.0217 216.42 20.0217C218.194 20.0217 219.411 18.4308 219.411 15.983ZM224.608 11.5965H222.084V20.4207H222.704V16.3692H224.585L226.967 20.408H227.68L225.253 16.328C226.64 16.142 227.51 15.3271 227.51 13.9255C227.51 12.2413 226.365 11.5965 224.608 11.5965ZM226.878 13.9128C226.878 15.2195 226.008 15.8389 224.447 15.8389H222.704V12.1055H224.447C226.03 12.1055 226.878 12.6062 226.878 13.9128ZM229.372 11.5965H234.2V12.1395H229.987V15.4825H233.526V16.0001H229.987V19.8904H234.332V20.4207H229.372V11.5965ZM238.799 11.5965H236.254V20.4207H236.89V16.3692H238.73L241.116 20.408H241.828L239.405 16.3331C240.814 16.1573 241.701 15.3404 241.701 13.9255C241.701 12.2413 240.556 11.5965 238.799 11.5965ZM241.048 13.9128C241.048 15.2195 240.178 15.8389 238.617 15.8389L236.882 15.8728V12.1395H238.63C240.191 12.1395 241.048 12.6062 241.048 13.9128Z" fill="white"/>
<defs>
<clipPath id="clip0_412_6171">
<rect width="32" height="32" fill="white"/>
</clipPath>
</defs>
</svg>
