<svg width="137" height="26" viewBox="0 0 137 26" fill="none" xmlns="http://www.w3.org/2000/svg">
<path d="M0 7.69418L4.00308 16.5641L10.6642 23.0898L4.0351 2.84741L0 7.69418Z" fill="#1B1B1B"/>
<path d="M6.50244 2.30908L8.80821 9.405L10.2493 9.91185L11.9466 4.58991L6.50244 2.30908Z" fill="#1B1B1B"/>
<path d="M23.0901 8.99328L19.8876 13.3966L12.554 10.7673L14.6356 4.43162L20.3039 3.0061L23.0901 8.99328Z" fill="#1B1B1B"/>
<path d="M18.3814 15.4871L13.1614 22.583L9.79883 12.4143L18.3814 15.4871Z" fill="#1B1B1B"/>
<path d="M9.48047 5.28701L10.2491 9.91203L11.9464 4.59009L9.48047 5.28701Z" fill="#393939"/>
<path d="M8.80822 9.405L10.2493 9.91185L9.48073 5.28683L6.50244 2.30908L8.80822 9.405Z" fill="#585858"/>
<path d="M6.98136 11.8123L4.00308 16.564L0 7.69409L6.98136 11.8123Z" fill="#393939"/>
<path d="M14.6356 4.43115L17.2936 8.48596L12.554 10.7668L14.6356 4.43115Z" fill="#585858"/>
<path d="M20.3026 3.0061L17.2923 8.48643L14.6343 4.43162L20.3026 3.0061Z" fill="#767676"/>
<path d="M19.887 13.3967L17.293 8.48657L23.0894 8.99342L19.887 13.3967Z" fill="#393939"/>
<path d="M13.3536 16.3424L13.1614 22.583L9.79883 12.4143L13.3536 16.3424Z" fill="#585858"/>
<path d="M13.1626 22.5832L13.3547 16.3426L18.3826 15.4873L13.1626 22.5832Z" fill="#393939"/>
<path d="M10.6636 23.0899L4.00244 16.5642L8.80613 17.4512L10.6636 23.0899Z" fill="#1B1B1B"/>
<path d="M6.98073 11.8125L4.00244 16.5642L8.80613 17.4512L6.98073 11.8125Z" fill="#585858"/>
<path d="M0 7.69418L6.98136 11.8123L4.0351 2.84741L0 7.69418Z" fill="#1B1B1B"/>
<path d="M18.3814 15.4871L13.3536 16.3424L9.79883 12.4143L18.3814 15.4871Z" fill="#1B1B1B"/>
<path d="M12.554 10.7674L19.8876 13.3967L17.2936 8.48657L12.554 10.7674Z" fill="#1B1B1B"/>
<path d="M23.0894 8.99328L17.293 8.48643L20.3033 3.0061L23.0894 8.99328Z" fill="#1B1B1B"/>
<path d="M6.50244 2.30908L11.9466 4.58991L9.48073 5.28683L6.50244 2.30908Z" fill="#1B1B1B"/>
<path d="M115.775 0.141113L113.449 12.9504H115.582L115.969 10.1219L117.843 11.5524L118.747 12.9504H120.88L118.489 0.141113H115.775ZM116.26 8.17127L117.132 2.67695H117.165L118.424 10.0244L116.26 8.17127Z" fill="black"/>
<path d="M38.2756 0.157227H36.0789L33.7852 4.88105H33.7529V0.157227H31.5562V12.934H33.7529V8.41497L34.5605 6.98449H34.5928L36.3696 12.934H38.5987L35.9496 4.9038L38.2756 0.157227Z" fill="black"/>
<path d="M60.566 3.90586C60.566 2.57292 60.2752 1.5976 59.6614 1.0124C59.0476 0.427208 58.1431 0.141113 56.8832 0.141113H53.8142V12.9504H55.9787V7.68361C56.3663 7.68361 56.7217 7.68361 57.1093 7.6511L58.66 12.9504H60.889L59.0476 7.15694C60.0814 6.67578 60.5983 5.60292 60.566 3.90586ZM58.0462 5.44037C57.8859 5.60764 57.6857 5.73077 57.4647 5.79799C57.2457 5.86797 57.0144 5.89013 56.7863 5.86301H56.011V1.92921H56.7863C57.0144 1.90208 57.2457 1.92425 57.4647 1.99423C57.6857 2.06144 57.8859 2.18457 58.0462 2.35185C58.3389 2.8132 58.4645 3.36213 58.4015 3.90586C58.4684 4.44363 58.3424 4.98777 58.0462 5.44037Z" fill="black"/>
<path d="M67.9964 0.141113H64.7659V12.9504H67.9964C70.29 12.9504 71.4207 11.6499 71.453 9.08157V4.00989C71.4207 1.44154 70.29 0.141113 67.9964 0.141113ZM69.2563 9.34166C69.3165 9.83602 69.1896 10.3351 68.9009 10.7396C68.7304 10.8856 68.5327 10.9961 68.3194 11.0647C68.1119 11.1361 67.8908 11.1583 67.6733 11.1298H66.9303V1.92921H67.6733C67.8908 1.90066 68.1119 1.92291 68.3194 1.99423C68.5321 2.06421 68.7295 2.17457 68.9009 2.31933C69.1607 2.73691 69.2849 3.22549 69.2563 3.7173V9.34166Z" fill="black"/>
<path d="M83.6643 0.141113L81.3384 12.9504H83.4705L83.8582 10.1219L85.7642 11.5524L86.6687 12.9504H88.8009L86.378 0.141113H83.6643ZM84.1489 8.17127L85.0212 2.67695H85.0535L86.3134 10.0244L84.1489 8.17127Z" fill="black"/>
<path d="M44.8013 0.141113L42.4753 12.9504H44.6075L44.9951 10.1219L46.9011 11.5524L47.8057 12.9504H49.9378L47.5149 0.141113H44.8013ZM45.2859 8.17127L46.1581 2.67695H46.1904L47.4503 10.0244L45.2859 8.17127Z" fill="black"/>
<path d="M134.965 0.0369053V7.44937H134.932C134.865 7.33667 134.811 7.2167 134.771 7.09175C133.899 4.78348 132.994 2.50773 132.122 0.199459C132.106 0.148697 132.077 0.103397 132.037 0.0688544C131.997 0.0343119 131.948 0.0119541 131.896 0.00439453H130.087V12.8136H132.122V5.46621C132.188 5.49057 132.245 5.53626 132.283 5.59625C133.188 7.93703 134.125 10.2778 135.029 12.5861C135.062 12.6511 135.126 12.8136 135.191 12.8136H137V0.0369053H134.965Z" fill="black"/>
<path d="M107.538 5.57041H105.115V0.141113H103.177V12.9504H105.147V7.26097H107.57V12.9178H109.508V0.141113H107.538V5.57041Z" fill="black"/>
<path d="M97.1678 9.3773V10.2226C97.1284 10.5352 96.9795 10.8234 96.7478 11.0354C96.631 11.1416 96.492 11.2201 96.341 11.2651C96.1901 11.3101 96.031 11.3205 95.8756 11.2954C95.1326 11.1329 94.8095 10.9378 94.8095 9.96249C94.7772 7.82003 94.8095 5.67107 94.8095 3.49285C94.8001 3.2025 94.8553 2.91371 94.971 2.64757C95.0934 2.38381 95.2974 2.16707 95.5525 2.02987C95.74 1.96697 95.9364 1.93513 96.134 1.93559C96.3338 1.9613 96.5233 2.03982 96.6832 2.16316C96.8369 2.28684 96.9681 2.43645 97.0709 2.60531C97.1675 2.78275 97.2016 2.98782 97.1678 3.18725V3.83747H99.203V2.78087C99.1822 2.41984 99.0946 2.0659 98.9446 1.73727C98.7773 1.41273 98.5591 1.11743 98.2985 0.862731C97.801 0.439775 97.1996 0.159263 96.5573 0.0505862C95.9151 -0.0580907 95.2556 0.00906817 94.648 0.245026C94.1189 0.443368 93.6587 0.792434 93.3234 1.24961C93 1.70839 92.8098 2.24873 92.7743 2.81013C92.8066 5.37848 92.7743 7.91432 92.7743 10.4859C92.7708 10.874 92.8713 11.2558 93.065 11.5913C93.2615 11.9248 93.5257 12.2128 93.8403 12.4366C94.5951 12.9597 95.5169 13.18 96.4248 13.0543C97.1742 12.9935 97.8755 12.658 98.3954 12.1115C98.7209 11.7383 98.9535 11.2926 99.0738 10.811C99.1975 10.3325 99.2085 9.8316 99.1061 9.34804L97.1678 9.3773Z" fill="black"/>
<path d="M77.4616 0.157227H75.2649V12.934H77.4616V0.157227Z" fill="black"/>
<path d="M124.756 12.934H126.695V0.157227H124.756V12.934Z" fill="black"/>
<path fill-rule="evenodd" clip-rule="evenodd" d="M35.2325 18.3767H31.5562V25.139H35.3359V24.7326H32.0246V21.7513H34.7188V21.3547H32.0246V18.7928H35.2325V18.3767ZM36.615 18.5228L38.4919 21.7739L36.4858 25.2753H36.9671L38.1366 23.1979C38.3175 22.8695 38.4952 22.5379 38.7116 22.1283H38.7536C38.8711 22.3373 38.979 22.5229 39.0801 22.6967L39.0801 22.6967L39.0801 22.6967L39.0802 22.6969C39.1819 22.8718 39.2767 23.0349 39.3674 23.1979L40.5401 25.2753H41.0505L39.025 21.8129L40.9019 18.5228H40.4205L39.3157 20.5158C39.1853 20.7425 39.0844 20.9325 38.9608 21.1654L38.9607 21.1655L38.9606 21.1657C38.9159 21.2499 38.8682 21.3398 38.815 21.4391H38.7762C38.6976 21.3054 38.6286 21.1908 38.5642 21.0839C38.4484 20.8919 38.3476 20.7246 38.2335 20.5158L37.1222 18.5228H36.615ZM42.207 18.5132H43.8998C45.4213 18.5132 46.3356 19.0106 46.3356 20.3988C46.3356 21.7253 45.4375 22.369 43.9418 22.369H42.6657V25.2755H42.194L42.207 18.5132ZM43.8222 21.9691C45.1952 21.9691 45.8542 21.5107 45.8542 20.3988C45.8542 19.287 45.1726 18.9294 43.7835 18.9294H42.6657V21.9854L43.8222 21.9691ZM48.2742 18.5132H47.8058L47.8349 25.2755H51.3884V24.8691H48.2742V18.5132ZM51.9342 21.8747C51.9342 19.7323 53.0842 18.3896 54.6995 18.3896C56.3147 18.3896 57.468 19.7323 57.468 21.8747C57.468 24.0172 56.3147 25.3989 54.6995 25.3989C53.0842 25.3989 51.9342 24.014 51.9342 21.8747ZM56.977 21.8747C56.977 19.9989 56.066 18.8187 54.6995 18.8187C53.333 18.8187 52.4381 19.9989 52.4381 21.8747C52.4381 23.7506 53.3491 24.9698 54.6995 24.9698C56.0498 24.9698 56.977 23.7506 56.977 21.8747ZM60.9345 18.5132H59.0124V25.2755H59.484V22.1707H60.9169L62.7306 25.2657H63.2734L61.4255 22.1392C62.4814 21.9966 63.1442 21.3721 63.1442 20.2981C63.1442 19.0074 62.2719 18.5132 60.9345 18.5132ZM62.6628 20.2883C62.6628 21.2896 62.0006 21.7643 60.8117 21.7643H59.484V18.9034H60.8117C62.0167 18.9034 62.6628 19.287 62.6628 20.2883ZM64.5622 18.5132H68.2385V18.9294H65.0306V21.4912H67.7249V21.8878H65.0306V24.8691H68.3387V25.2755H64.5622V18.5132ZM71.7406 18.5132H69.8023V25.2755H70.2869V22.1707H71.6876L73.5045 25.2657H74.0472L72.2016 22.1431C73.275 22.0083 73.9503 21.3823 73.9503 20.2981C73.9503 19.0074 73.078 18.5132 71.7406 18.5132ZM73.4528 20.2883C73.4528 21.2896 72.7905 21.7643 71.6017 21.7643L70.2804 21.7903V18.9294H71.6114C72.8002 18.9294 73.4528 19.287 73.4528 20.2883Z" fill="black"/>
</svg>
